<svg width="32" height="32" viewBox="0 0 32 32" fill="none" xmlns="http://www.w3.org/2000/svg">
  <path
    d="M0 16C0 7.16344 7.16344 0 16 0C24.8366 0 32 7.16344 32 16C32 24.8366 24.8366 32 16 32C7.16344 32 0 24.8366 0 16Z"
    fill="url(#paint0_linear_1072_20761)"
  />
  <path
    fill-rule="evenodd"
    clip-rule="evenodd"
    d="M17.4243 12.1757C17.6586 12.4101 17.6586 12.7899 17.4243 13.0243L14.4485 16L17.4243 18.9757C17.6586 19.2101 17.6586 19.59 17.4243 19.8243C17.1899 20.0586 16.8101 20.0586 16.5757 19.8243L13.1757 16.4243C12.9414 16.1899 12.9414 15.8101 13.1757 15.5757L16.5757 12.1757C16.8101 11.9414 17.1899 11.9414 17.4243 12.1757Z"
    fill="url(#paint1_linear_1072_20761)"
  />
  <defs>
    <linearGradient id="paint0_linear_1072_20761" x1="16" y1="0" x2="16" y2="32" gradientUnits="userSpaceOnUse">
      <stop stop-color="#0C0C0C" stop-opacity="0.05" />
      <stop offset="1" stop-color="#0C0C0C" stop-opacity="0.5" />
    </linearGradient>
    <linearGradient
      id="paint1_linear_1072_20761"
      x1="15.4499"
      y1="12"
      x2="12.5753"
      y2="18.7831"
      gradientUnits="userSpaceOnUse"
    >
      <stop stop-color="#C9AE8D" />
      <stop offset="1" stop-color="#A57D4E" />
    </linearGradient>
  </defs>
</svg>
