<svg width="48" height="48" viewBox="0 0 48 48" fill="none" xmlns="http://www.w3.org/2000/svg">
<g filter="url(#filter0_bddddi_31_1085)">
<circle cx="22" cy="22" r="20.625" fill="#2A272E"/>
</g>
<mask id="mask0_31_1085" style="mask-type:alpha" maskUnits="userSpaceOnUse" x="1" y="1" width="42" height="42">
<circle cx="22" cy="22" r="18.7344" stroke="black" stroke-width="3.78125" stroke-linecap="round"/>
</mask>
<g mask="url(#mask0_31_1085)">
<rect x="16.1562" y="-4.46875" width="12.0312" height="52.5938" fill="#FCE51A"/>
<rect x="48.4688" y="16.5" width="10.6563" height="52.5938" transform="rotate(90 48.4688 16.5)" fill="#FCE51A"/>
<path d="M45.375 19.9375L-0.6875 19.9375" stroke="#23780D" stroke-width="1.71875"/>
<path d="M45.375 23.7188L-0.6875 23.7187" stroke="#23780D" stroke-width="1.71875"/>
<path d="M20.4531 -1.20312V44.8594" stroke="#23780D" stroke-width="1.71875"/>
<path d="M24.2344 -1.20312V44.8594" stroke="#23780D" stroke-width="1.71875"/>
</g>
<circle cx="22" cy="22" r="13.5781" fill="#E7E6DE" stroke="black" stroke-width="0.34375" stroke-linecap="round"/>
<g style="mix-blend-mode:overlay" filter="url(#filter1_i_31_1085)">
<circle cx="22" cy="22" r="20.625" fill="url(#paint0_linear_31_1085)" fill-opacity="0.25"/>
</g>
<g filter="url(#filter2_di_31_1085)">
<path d="M35.0543 8.49957C35.3254 8.42693 35.5734 8.67501 35.5008 8.94612L34.847 11.3861C34.7744 11.6572 34.4355 11.748 34.237 11.5495L32.4508 9.76335C32.2524 9.56488 32.3432 9.226 32.6143 9.15336L35.0543 8.49957Z" fill="#2E3135"/>
<path d="M35.0543 8.49957C35.3254 8.42693 35.5734 8.67501 35.5008 8.94612L34.847 11.3861C34.7744 11.6572 34.4355 11.748 34.237 11.5495L32.4508 9.76335C32.2524 9.56488 32.3432 9.226 32.6143 9.15336L35.0543 8.49957Z" fill="url(#paint1_linear_31_1085)"/>
<path d="M8.49958 35.0542C8.42694 35.3254 8.67502 35.5734 8.94613 35.5008L11.3861 34.847C11.6572 34.7744 11.748 34.4355 11.5495 34.237L9.76336 32.4508C9.5649 32.2524 9.22601 32.3432 9.15337 32.6143L8.49958 35.0542Z" fill="#2E3135"/>
<path d="M8.49958 35.0542C8.42694 35.3254 8.67502 35.5734 8.94613 35.5008L11.3861 34.847C11.6572 34.7744 11.748 34.4355 11.5495 34.237L9.76336 32.4508C9.5649 32.2524 9.22601 32.3432 9.15337 32.6143L8.49958 35.0542Z" fill="url(#paint2_linear_31_1085)"/>
<path d="M35.5006 35.0541C35.5732 35.3252 35.3252 35.5732 35.0541 35.5006L32.6141 34.8468C32.343 34.7742 32.2522 34.4353 32.4507 34.2368L34.2368 32.4506C34.4353 32.2522 34.7742 32.343 34.8468 32.6141L35.5006 35.0541Z" fill="#2E3135"/>
<path d="M35.5006 35.0541C35.5732 35.3252 35.3252 35.5732 35.0541 35.5006L32.6141 34.8468C32.343 34.7742 32.2522 34.4353 32.4507 34.2368L34.2368 32.4506C34.4353 32.2522 34.7742 32.343 34.8468 32.6141L35.5006 35.0541Z" fill="url(#paint3_linear_31_1085)"/>
<path d="M8.94593 8.49938C8.67482 8.42674 8.42674 8.67482 8.49939 8.94593L9.15317 11.3859C9.22581 11.657 9.5647 11.7478 9.76316 11.5493L11.5493 9.76316C11.7478 9.56469 11.657 9.22581 11.3859 9.15317L8.94593 8.49938Z" fill="#2E3135"/>
<path d="M8.94593 8.49938C8.67482 8.42674 8.42674 8.67482 8.49939 8.94593L9.15317 11.3859C9.22581 11.657 9.5647 11.7478 9.76316 11.5493L11.5493 9.76316C11.7478 9.56469 11.657 9.22581 11.3859 9.15317L8.94593 8.49938Z" fill="url(#paint4_linear_31_1085)"/>
</g>
<circle cx="21.9999" cy="22" r="20.3362" stroke="url(#paint5_angular_31_1085)" stroke-width="0.6875" stroke-linecap="round"/>
<mask id="path-14-outside-1_31_1085" maskUnits="userSpaceOnUse" x="9.5" y="15" width="25" height="15" fill="black">
<rect fill="white" x="9.5" y="15" width="25" height="15"/>
<path d="M14.0191 16.27C15.7531 16.27 17.3851 17.29 17.3851 19.007V25.399C17.3851 27.201 15.7531 28.17 14.0191 28.17C12.9651 28.17 11.8261 27.83 11.0951 27.201L11.7751 25.62C12.3871 26.028 13.1691 26.317 14.0191 26.317C14.8011 26.317 15.4981 25.892 15.4981 25.093V23.274C15.0561 23.886 14.2571 24.175 13.6621 24.175C11.9961 24.175 10.6701 23.274 10.6701 21.574V19.007C10.6701 17.29 12.3021 16.27 14.0191 16.27ZM15.2601 21.438V19.109C15.2601 18.497 14.6141 18.157 14.0191 18.157C13.4071 18.157 12.7951 18.497 12.7951 19.109V21.421C12.7951 22.101 13.4411 22.407 14.0531 22.407C14.6481 22.407 15.2601 22.084 15.2601 21.438ZM21.8103 16.27C23.8333 16.27 25.3633 17.562 25.3633 19.67V24.838C25.3633 26.963 23.8163 28.17 21.8103 28.17C19.7703 28.17 18.2913 26.946 18.2913 24.838V19.67C18.2913 17.562 19.7703 16.27 21.8103 16.27ZM23.2383 24.838V19.67C23.2383 18.684 22.8133 18.157 21.8103 18.157C20.9603 18.157 20.3993 18.684 20.3993 19.67V24.838C20.3993 25.807 20.9773 26.317 21.8103 26.317C22.6603 26.317 23.2383 25.824 23.2383 24.838ZM29.7631 16.27C31.7861 16.27 33.3161 17.562 33.3161 19.67V24.838C33.3161 26.963 31.7691 28.17 29.7631 28.17C27.7231 28.17 26.2441 26.946 26.2441 24.838V19.67C26.2441 17.562 27.7231 16.27 29.7631 16.27ZM31.1911 24.838V19.67C31.1911 18.684 30.7661 18.157 29.7631 18.157C28.9131 18.157 28.3521 18.684 28.3521 19.67V24.838C28.3521 25.807 28.9301 26.317 29.7631 26.317C30.6131 26.317 31.1911 25.824 31.1911 24.838Z"/>
</mask>
<path d="M14.0191 16.27C15.7531 16.27 17.3851 17.29 17.3851 19.007V25.399C17.3851 27.201 15.7531 28.17 14.0191 28.17C12.9651 28.17 11.8261 27.83 11.0951 27.201L11.7751 25.62C12.3871 26.028 13.1691 26.317 14.0191 26.317C14.8011 26.317 15.4981 25.892 15.4981 25.093V23.274C15.0561 23.886 14.2571 24.175 13.6621 24.175C11.9961 24.175 10.6701 23.274 10.6701 21.574V19.007C10.6701 17.29 12.3021 16.27 14.0191 16.27ZM15.2601 21.438V19.109C15.2601 18.497 14.6141 18.157 14.0191 18.157C13.4071 18.157 12.7951 18.497 12.7951 19.109V21.421C12.7951 22.101 13.4411 22.407 14.0531 22.407C14.6481 22.407 15.2601 22.084 15.2601 21.438ZM21.8103 16.27C23.8333 16.27 25.3633 17.562 25.3633 19.67V24.838C25.3633 26.963 23.8163 28.17 21.8103 28.17C19.7703 28.17 18.2913 26.946 18.2913 24.838V19.67C18.2913 17.562 19.7703 16.27 21.8103 16.27ZM23.2383 24.838V19.67C23.2383 18.684 22.8133 18.157 21.8103 18.157C20.9603 18.157 20.3993 18.684 20.3993 19.67V24.838C20.3993 25.807 20.9773 26.317 21.8103 26.317C22.6603 26.317 23.2383 25.824 23.2383 24.838ZM29.7631 16.27C31.7861 16.27 33.3161 17.562 33.3161 19.67V24.838C33.3161 26.963 31.7691 28.17 29.7631 28.17C27.7231 28.17 26.2441 26.946 26.2441 24.838V19.67C26.2441 17.562 27.7231 16.27 29.7631 16.27ZM31.1911 24.838V19.67C31.1911 18.684 30.7661 18.157 29.7631 18.157C28.9131 18.157 28.3521 18.684 28.3521 19.67V24.838C28.3521 25.807 28.9301 26.317 29.7631 26.317C30.6131 26.317 31.1911 25.824 31.1911 24.838Z" fill="url(#paint6_linear_31_1085)"/>
<path d="M11.0951 27.201L10.1765 26.8059L9.88643 27.4802L10.4429 27.959L11.0951 27.201ZM11.7751 25.62L12.3298 24.7879L11.3308 24.122L10.8565 25.2249L11.7751 25.62ZM15.4981 23.274H16.4981V20.1814L14.6874 22.6885L15.4981 23.274ZM14.0191 17.27C14.7028 17.27 15.3249 17.4733 15.7515 17.794C16.1587 18.1001 16.3851 18.5028 16.3851 19.007H18.3851C18.3851 17.7941 17.7955 16.8284 16.9532 16.1953C16.1303 15.5767 15.0694 15.27 14.0191 15.27V17.27ZM16.3851 19.007V25.399H18.3851V19.007H16.3851ZM16.3851 25.399C16.3851 25.9588 16.1473 26.3647 15.7532 26.6596C15.3335 26.9737 14.714 27.17 14.0191 27.17V29.17C15.0582 29.17 16.1217 28.8818 16.9515 28.2609C17.8069 27.6208 18.3851 26.6412 18.3851 25.399H16.3851ZM14.0191 27.17C13.1388 27.17 12.2527 26.8778 11.7473 26.443L10.4429 27.959C11.3995 28.7822 12.7913 29.17 14.0191 29.17V27.17ZM12.0137 27.5961L12.6937 26.0151L10.8565 25.2249L10.1765 26.8059L12.0137 27.5961ZM11.2204 26.4521C11.9715 26.9528 12.9434 27.317 14.0191 27.317V25.317C13.3948 25.317 12.8027 25.1032 12.3298 24.7879L11.2204 26.4521ZM14.0191 27.317C14.5777 27.317 15.1737 27.167 15.6558 26.8016C16.1651 26.4157 16.4981 25.8204 16.4981 25.093H14.4981C14.4981 25.1433 14.4882 25.163 14.486 25.1673C14.4831 25.173 14.4747 25.1873 14.4479 25.2076C14.386 25.2545 14.2425 25.317 14.0191 25.317V27.317ZM16.4981 25.093V23.274H14.4981V25.093H16.4981ZM14.6874 22.6885C14.5891 22.8246 14.4312 22.9499 14.2259 23.0426C14.0184 23.1363 13.8097 23.175 13.6621 23.175V25.175C14.5022 25.175 15.6383 24.7878 16.3088 23.8595L14.6874 22.6885ZM13.6621 23.175C12.998 23.175 12.491 22.9946 12.1712 22.7353C11.8766 22.4964 11.6701 22.137 11.6701 21.574H9.6701C9.6701 22.711 10.1266 23.6521 10.9114 24.2887C11.6712 24.9049 12.6602 25.175 13.6621 25.175V23.175ZM11.6701 21.574V19.007H9.6701V21.574H11.6701ZM11.6701 19.007C11.6701 18.5025 11.8968 18.0993 12.3029 17.793C12.728 17.4723 13.3458 17.27 14.0191 17.27V15.27C12.9754 15.27 11.9187 15.5777 11.0985 16.1963C10.2594 16.8292 9.6701 17.7945 9.6701 19.007H11.6701ZM16.2601 21.438V19.109H14.2601V21.438H16.2601ZM16.2601 19.109C16.2601 18.4019 15.8713 17.8821 15.4277 17.5784C15.0027 17.2874 14.4888 17.157 14.0191 17.157V19.157C14.0747 19.157 14.1336 19.1652 14.1879 19.1808C14.2427 19.1966 14.2791 19.2159 14.2978 19.2286C14.316 19.2411 14.3057 19.239 14.2895 19.2117C14.2702 19.1792 14.2601 19.1397 14.2601 19.109H16.2601ZM14.0191 17.157C13.544 17.157 13.0279 17.286 12.6021 17.5857C12.1541 17.901 11.7951 18.4234 11.7951 19.109H13.7951C13.7951 19.1293 13.7883 19.1633 13.77 19.1957C13.7539 19.2239 13.7413 19.2296 13.7531 19.2213C13.7658 19.2124 13.7961 19.1952 13.8472 19.1804C13.8976 19.1658 13.957 19.157 14.0191 19.157V17.157ZM11.7951 19.109V21.421H13.7951V19.109H11.7951ZM11.7951 21.421C11.7951 22.1312 12.1545 22.6717 12.6331 22.9965C13.076 23.297 13.6003 23.407 14.0531 23.407V21.407C13.9814 21.407 13.9138 21.3978 13.8573 21.3827C13.8001 21.3673 13.7681 21.3497 13.7561 21.3415C13.7461 21.3347 13.7605 21.3421 13.7766 21.3706C13.7947 21.4027 13.7951 21.4264 13.7951 21.421H11.7951ZM14.0531 23.407C14.5142 23.407 15.0296 23.2849 15.4588 22.98C15.9169 22.6547 16.2601 22.1237 16.2601 21.438H14.2601C14.2601 21.4392 14.26 21.4323 14.2633 21.4196C14.2665 21.4068 14.2718 21.393 14.2791 21.3797C14.2943 21.3522 14.308 21.3442 14.3006 21.3495C14.2917 21.3558 14.2655 21.3713 14.2175 21.385C14.1701 21.3986 14.1132 21.407 14.0531 21.407V23.407ZM21.8103 17.27C22.6106 17.27 23.244 17.5237 23.6671 17.9143C24.0809 18.2962 24.3633 18.8718 24.3633 19.67H26.3633C26.3633 18.3602 25.8807 17.2358 25.0237 16.4447C24.176 15.6623 23.033 15.27 21.8103 15.27V17.27ZM24.3633 19.67V24.838H26.3633V19.67H24.3633ZM24.3633 24.838C24.3633 25.6408 24.08 26.1927 23.6742 26.5539C23.2539 26.9279 22.618 27.17 21.8103 27.17V29.17C23.0085 29.17 24.1491 28.8086 25.0039 28.0479C25.873 27.2743 26.3633 26.1602 26.3633 24.838H24.3633ZM21.8103 27.17C20.9864 27.17 20.3642 26.9244 19.9595 26.5555C19.5664 26.1971 19.2913 25.6446 19.2913 24.838H17.2913C17.2913 26.1394 17.7557 27.2529 18.6121 28.0335C19.4569 28.8036 20.5942 29.17 21.8103 29.17V27.17ZM19.2913 24.838V19.67H17.2913V24.838H19.2913ZM19.2913 19.67C19.2913 18.8613 19.5683 18.2859 19.9702 17.9086C20.3798 17.524 21.0006 17.27 21.8103 17.27V15.27C20.5799 15.27 19.4412 15.662 18.6013 16.4504C17.7538 17.2461 17.2913 18.3707 17.2913 19.67H19.2913ZM24.2383 24.838V19.67H22.2383V24.838H24.2383ZM24.2383 19.67C24.2383 19.0573 24.1095 18.3876 23.6406 17.8714C23.1541 17.3358 22.4791 17.157 21.8103 17.157V19.157C21.9768 19.157 22.0721 19.1793 22.1192 19.1961C22.1417 19.2042 22.1527 19.2108 22.1564 19.2132C22.1597 19.2154 22.1602 19.2161 22.1602 19.2161C22.1604 19.2163 22.1641 19.2204 22.1704 19.2319C22.1768 19.2439 22.1868 19.2657 22.1971 19.3007C22.2186 19.3736 22.2383 19.4916 22.2383 19.67H24.2383ZM21.8103 17.157C21.1765 17.157 20.5413 17.3581 20.067 17.8487C19.5958 18.3362 19.3993 18.9896 19.3993 19.67H21.3993C21.3993 19.3644 21.4833 19.2613 21.505 19.2388C21.5238 19.2194 21.5941 19.157 21.8103 19.157V17.157ZM19.3993 19.67V24.838H21.3993V19.67H19.3993ZM19.3993 24.838C19.3993 25.523 19.6079 26.1705 20.0853 26.648C20.5608 27.1235 21.19 27.317 21.8103 27.317V25.317C21.5976 25.317 21.5212 25.2555 21.4995 25.2338C21.4797 25.214 21.3993 25.122 21.3993 24.838H19.3993ZM21.8103 27.317C22.4251 27.317 23.0603 27.1359 23.5441 26.6604C24.0318 26.1809 24.2383 25.5274 24.2383 24.838H22.2383C22.2383 25.1346 22.1557 25.2206 22.142 25.2341C22.1242 25.2516 22.0455 25.317 21.8103 25.317V27.317ZM29.7631 17.27C30.5634 17.27 31.1968 17.5237 31.6199 17.9143C32.0337 18.2962 32.3161 18.8718 32.3161 19.67H34.3161C34.3161 18.3602 33.8335 17.2358 32.9765 16.4447C32.1289 15.6623 30.9858 15.27 29.7631 15.27V17.27ZM32.3161 19.67V24.838H34.3161V19.67H32.3161ZM32.3161 24.838C32.3161 25.6408 32.0328 26.1927 31.627 26.5539C31.2068 26.9279 30.5709 27.17 29.7631 27.17V29.17C30.9613 29.17 32.1019 28.8086 32.9567 28.0479C33.8259 27.2743 34.3161 26.1602 34.3161 24.838H32.3161ZM29.7631 27.17C28.9392 27.17 28.317 26.9244 27.9123 26.5555C27.5192 26.1971 27.2441 25.6446 27.2441 24.838H25.2441C25.2441 26.1394 25.7085 27.2529 26.5649 28.0335C27.4097 28.8036 28.547 29.17 29.7631 29.17V27.17ZM27.2441 24.838V19.67H25.2441V24.838H27.2441ZM27.2441 19.67C27.2441 18.8613 27.5211 18.2859 27.923 17.9086C28.3326 17.524 28.9534 17.27 29.7631 17.27V15.27C28.5327 15.27 27.394 15.662 26.5542 16.4504C25.7066 17.2461 25.2441 18.3707 25.2441 19.67H27.2441ZM32.1911 24.838V19.67H30.1911V24.838H32.1911ZM32.1911 19.67C32.1911 19.0573 32.0623 18.3876 31.5934 17.8714C31.107 17.3358 30.4319 17.157 29.7631 17.157V19.157C29.9296 19.157 30.0249 19.1793 30.0721 19.1961C30.0945 19.2042 30.1055 19.2108 30.1092 19.2132C30.1125 19.2154 30.113 19.2161 30.113 19.2161C30.1132 19.2163 30.117 19.2204 30.1232 19.2319C30.1296 19.2439 30.1396 19.2657 30.1499 19.3007C30.1714 19.3736 30.1911 19.4916 30.1911 19.67H32.1911ZM29.7631 17.157C29.1293 17.157 28.4941 17.3581 28.0199 17.8487C27.5486 18.3362 27.3521 18.9896 27.3521 19.67H29.3521C29.3521 19.3644 29.4361 19.2613 29.4578 19.2388C29.4766 19.2194 29.5469 19.157 29.7631 19.157V17.157ZM27.3521 19.67V24.838H29.3521V19.67H27.3521ZM27.3521 24.838C27.3521 25.523 27.5607 26.1705 28.0381 26.648C28.5136 27.1235 29.1428 27.317 29.7631 27.317V25.317C29.5504 25.317 29.474 25.2555 29.4523 25.2338C29.4325 25.214 29.3521 25.122 29.3521 24.838H27.3521ZM29.7631 27.317C30.3779 27.317 31.0131 27.1359 31.4969 26.6604C31.9846 26.1809 32.1911 25.5274 32.1911 24.838H30.1911C30.1911 25.1346 30.1085 25.2206 30.0948 25.2341C30.0771 25.2516 29.9983 25.317 29.7631 25.317V27.317Z" fill="#EAE9E1" mask="url(#path-14-outside-1_31_1085)"/>
<defs>
<filter id="filter0_bddddi_31_1085" x="-3.4375" y="-3.4375" width="51.0125" height="51.0125" filterUnits="userSpaceOnUse" color-interpolation-filters="sRGB">
<feFlood flood-opacity="0" result="BackgroundImageFix"/>
<feGaussianBlur in="BackgroundImageFix" stdDeviation="2.40625"/>
<feComposite in2="SourceAlpha" operator="in" result="effect1_backgroundBlur_31_1085"/>
<feColorMatrix in="SourceAlpha" type="matrix" values="0 0 0 0 0 0 0 0 0 0 0 0 0 0 0 0 0 0 127 0" result="hardAlpha"/>
<feOffset/>
<feGaussianBlur stdDeviation="0.495"/>
<feColorMatrix type="matrix" values="0 0 0 0 0 0 0 0 0 0 0 0 0 0 0 0 0 0 0.25 0"/>
<feBlend mode="normal" in2="effect1_backgroundBlur_31_1085" result="effect2_dropShadow_31_1085"/>
<feColorMatrix in="SourceAlpha" type="matrix" values="0 0 0 0 0 0 0 0 0 0 0 0 0 0 0 0 0 0 127 0" result="hardAlpha"/>
<feOffset dx="0.99" dy="0.99"/>
<feGaussianBlur stdDeviation="0.495"/>
<feColorMatrix type="matrix" values="0 0 0 0 0 0 0 0 0 0 0 0 0 0 0 0 0 0 0.22 0"/>
<feBlend mode="normal" in2="effect2_dropShadow_31_1085" result="effect3_dropShadow_31_1085"/>
<feColorMatrix in="SourceAlpha" type="matrix" values="0 0 0 0 0 0 0 0 0 0 0 0 0 0 0 0 0 0 127 0" result="hardAlpha"/>
<feOffset dx="1.98" dy="1.98"/>
<feGaussianBlur stdDeviation="0.495"/>
<feColorMatrix type="matrix" values="0 0 0 0 0 0 0 0 0 0 0 0 0 0 0 0 0 0 0.13 0"/>
<feBlend mode="normal" in2="effect3_dropShadow_31_1085" result="effect4_dropShadow_31_1085"/>
<feColorMatrix in="SourceAlpha" type="matrix" values="0 0 0 0 0 0 0 0 0 0 0 0 0 0 0 0 0 0 127 0" result="hardAlpha"/>
<feOffset dx="2.97" dy="2.97"/>
<feGaussianBlur stdDeviation="0.99"/>
<feColorMatrix type="matrix" values="0 0 0 0 0 0 0 0 0 0 0 0 0 0 0 0 0 0 0.04 0"/>
<feBlend mode="normal" in2="effect4_dropShadow_31_1085" result="effect5_dropShadow_31_1085"/>
<feBlend mode="normal" in="SourceGraphic" in2="effect5_dropShadow_31_1085" result="shape"/>
<feColorMatrix in="SourceAlpha" type="matrix" values="0 0 0 0 0 0 0 0 0 0 0 0 0 0 0 0 0 0 127 0" result="hardAlpha"/>
<feMorphology radius="0.34375" operator="erode" in="SourceAlpha" result="effect6_innerShadow_31_1085"/>
<feOffset/>
<feGaussianBlur stdDeviation="0.34375"/>
<feComposite in2="hardAlpha" operator="arithmetic" k2="-1" k3="1"/>
<feColorMatrix type="matrix" values="0 0 0 0 1 0 0 0 0 1 0 0 0 0 1 0 0 0 0.25 0"/>
<feBlend mode="normal" in2="shape" result="effect6_innerShadow_31_1085"/>
</filter>
<filter id="filter1_i_31_1085" x="1.375" y="1.375" width="41.25" height="41.25" filterUnits="userSpaceOnUse" color-interpolation-filters="sRGB">
<feFlood flood-opacity="0" result="BackgroundImageFix"/>
<feBlend mode="normal" in="SourceGraphic" in2="BackgroundImageFix" result="shape"/>
<feColorMatrix in="SourceAlpha" type="matrix" values="0 0 0 0 0 0 0 0 0 0 0 0 0 0 0 0 0 0 127 0" result="hardAlpha"/>
<feMorphology radius="0.34375" operator="erode" in="SourceAlpha" result="effect1_innerShadow_31_1085"/>
<feOffset/>
<feGaussianBlur stdDeviation="0.34375"/>
<feComposite in2="hardAlpha" operator="arithmetic" k2="-1" k3="1"/>
<feColorMatrix type="matrix" values="0 0 0 0 1 0 0 0 0 1 0 0 0 0 1 0 0 0 0.25 0"/>
<feBlend mode="normal" in2="shape" result="effect1_innerShadow_31_1085"/>
</filter>
<filter id="filter2_di_31_1085" x="8.10845" y="8.4522" width="27.7833" height="27.7833" filterUnits="userSpaceOnUse" color-interpolation-filters="sRGB">
<feFlood flood-opacity="0" result="BackgroundImageFix"/>
<feColorMatrix in="SourceAlpha" type="matrix" values="0 0 0 0 0 0 0 0 0 0 0 0 0 0 0 0 0 0 127 0" result="hardAlpha"/>
<feOffset dy="0.34375"/>
<feGaussianBlur stdDeviation="0.189063"/>
<feComposite in2="hardAlpha" operator="out"/>
<feColorMatrix type="matrix" values="0 0 0 0 0 0 0 0 0 0 0 0 0 0 0 0 0 0 0.51 0"/>
<feBlend mode="normal" in2="BackgroundImageFix" result="effect1_dropShadow_31_1085"/>
<feBlend mode="normal" in="SourceGraphic" in2="effect1_dropShadow_31_1085" result="shape"/>
<feColorMatrix in="SourceAlpha" type="matrix" values="0 0 0 0 0 0 0 0 0 0 0 0 0 0 0 0 0 0 127 0" result="hardAlpha"/>
<feOffset dy="0.34375"/>
<feGaussianBlur stdDeviation="0.34375"/>
<feComposite in2="hardAlpha" operator="arithmetic" k2="-1" k3="1"/>
<feColorMatrix type="matrix" values="0 0 0 0 1 0 0 0 0 1 0 0 0 0 1 0 0 0 0.5 0"/>
<feBlend mode="normal" in2="shape" result="effect2_innerShadow_31_1085"/>
</filter>
<linearGradient id="paint0_linear_31_1085" x1="22" y1="1.375" x2="22" y2="42.625" gradientUnits="userSpaceOnUse">
<stop stop-color="white"/>
<stop offset="1"/>
</linearGradient>
<linearGradient id="paint1_linear_31_1085" x1="28.5553" y1="2.23586" x2="20.4913" y2="42.9678" gradientUnits="userSpaceOnUse">
<stop stop-color="#D5BC80"/>
<stop offset="1" stop-color="#AE8943"/>
</linearGradient>
<linearGradient id="paint2_linear_31_1085" x1="28.5553" y1="2.23586" x2="20.4913" y2="42.9678" gradientUnits="userSpaceOnUse">
<stop stop-color="#D5BC80"/>
<stop offset="1" stop-color="#AE8943"/>
</linearGradient>
<linearGradient id="paint3_linear_31_1085" x1="28.5553" y1="2.23586" x2="20.4913" y2="42.9678" gradientUnits="userSpaceOnUse">
<stop stop-color="#D5BC80"/>
<stop offset="1" stop-color="#AE8943"/>
</linearGradient>
<linearGradient id="paint4_linear_31_1085" x1="28.5553" y1="2.23586" x2="20.4913" y2="42.9678" gradientUnits="userSpaceOnUse">
<stop stop-color="#D5BC80"/>
<stop offset="1" stop-color="#AE8943"/>
</linearGradient>
<radialGradient id="paint5_angular_31_1085" cx="0" cy="0" r="1" gradientUnits="userSpaceOnUse" gradientTransform="translate(21.9999 22) rotate(90) scale(20.68)">
<stop offset="0.227265" stop-color="white" stop-opacity="0"/>
<stop offset="0.365" stop-color="white"/>
<stop offset="0.537834" stop-color="white" stop-opacity="0"/>
<stop offset="0.784159" stop-color="white" stop-opacity="0"/>
<stop offset="0.872176" stop-color="white" stop-opacity="0.47"/>
<stop offset="0.964463" stop-color="white" stop-opacity="0"/>
</radialGradient>
<linearGradient id="paint6_linear_31_1085" x1="22" y1="19.4286" x2="22" y2="23.7143" gradientUnits="userSpaceOnUse">
<stop stop-color="#3D3F40"/>
<stop offset="1" stop-color="#0D0D0D"/>
</linearGradient>
</defs>
</svg>
