<svg width="48" height="48" viewBox="0 0 48 48" fill="none" xmlns="http://www.w3.org/2000/svg">
<g filter="url(#filter0_bddddi_31_1387)">
<circle cx="22" cy="22" r="20.625" fill="#3F7D21"/>
</g>
<mask id="mask0_31_1387" style="mask-type:alpha" maskUnits="userSpaceOnUse" x="1" y="1" width="42" height="42">
<circle cx="22" cy="22" r="18.7344" stroke="black" stroke-width="3.78125" stroke-linecap="round"/>
</mask>
<g mask="url(#mask0_31_1387)">
<rect x="16.1562" y="-4.46875" width="12.0312" height="52.5938" fill="#EEC328"/>
<rect x="48.4688" y="16.5" width="10.6563" height="52.5938" transform="rotate(90 48.4688 16.5)" fill="#EEC328"/>
<path d="M45.375 21.6562L-0.6875 21.6562" stroke="#454545" stroke-width="2.40625"/>
<path d="M22.3438 -1.375V44.6875" stroke="#454545" stroke-width="2.40625"/>
</g>
<circle cx="22" cy="22" r="13.75" fill="#E7E6DE"/>
<circle cx="22" cy="22" r="13.9219" stroke="black" stroke-opacity="0.36" stroke-width="0.34375" stroke-linecap="round"/>
<g style="mix-blend-mode:overlay" filter="url(#filter1_i_31_1387)">
<circle cx="22" cy="22" r="20.625" fill="url(#paint0_linear_31_1387)" fill-opacity="0.25"/>
</g>
<g filter="url(#filter2_di_31_1387)">
<path d="M35.0543 8.4996C35.3254 8.42696 35.5734 8.67504 35.5008 8.94615L34.847 11.3861C34.7744 11.6572 34.4355 11.748 34.237 11.5496L32.4508 9.76338C32.2524 9.56491 32.3432 9.22603 32.6143 9.15339L35.0543 8.4996Z" fill="#312E35"/>
<path d="M35.0543 8.4996C35.3254 8.42696 35.5734 8.67504 35.5008 8.94615L34.847 11.3861C34.7744 11.6572 34.4355 11.748 34.237 11.5496L32.4508 9.76338C32.2524 9.56491 32.3432 9.22603 32.6143 9.15339L35.0543 8.4996Z" fill="url(#paint1_linear_31_1387)"/>
<path d="M8.49958 35.0543C8.42694 35.3254 8.67502 35.5735 8.94613 35.5008L11.3861 34.847C11.6572 34.7744 11.748 34.4355 11.5495 34.237L9.76336 32.4509C9.5649 32.2524 9.22601 32.3432 9.15337 32.6143L8.49958 35.0543Z" fill="#312E35"/>
<path d="M8.49958 35.0543C8.42694 35.3254 8.67502 35.5735 8.94613 35.5008L11.3861 34.847C11.6572 34.7744 11.748 34.4355 11.5495 34.237L9.76336 32.4509C9.5649 32.2524 9.22601 32.3432 9.15337 32.6143L8.49958 35.0543Z" fill="url(#paint2_linear_31_1387)"/>
<path d="M35.5006 35.0541C35.5732 35.3252 35.3252 35.5733 35.0541 35.5006L32.6141 34.8468C32.343 34.7742 32.2522 34.4353 32.4507 34.2369L34.2368 32.4507C34.4353 32.2522 34.7742 32.343 34.8468 32.6141L35.5006 35.0541Z" fill="#312E35"/>
<path d="M35.5006 35.0541C35.5732 35.3252 35.3252 35.5733 35.0541 35.5006L32.6141 34.8468C32.343 34.7742 32.2522 34.4353 32.4507 34.2369L34.2368 32.4507C34.4353 32.2522 34.7742 32.343 34.8468 32.6141L35.5006 35.0541Z" fill="url(#paint3_linear_31_1387)"/>
<path d="M8.94593 8.49941C8.67482 8.42677 8.42674 8.67485 8.49939 8.94596L9.15317 11.3859C9.22581 11.657 9.5647 11.7478 9.76316 11.5494L11.5493 9.76319C11.7478 9.56472 11.657 9.22584 11.3859 9.1532L8.94593 8.49941Z" fill="#312E35"/>
<path d="M8.94593 8.49941C8.67482 8.42677 8.42674 8.67485 8.49939 8.94596L9.15317 11.3859C9.22581 11.657 9.5647 11.7478 9.76316 11.5494L11.5493 9.76319C11.7478 9.56472 11.657 9.22584 11.3859 9.1532L8.94593 8.49941Z" fill="url(#paint4_linear_31_1387)"/>
</g>
<circle cx="22.0001" cy="22" r="20.3362" stroke="url(#paint5_angular_31_1387)" stroke-width="0.6875" stroke-linecap="round"/>
<path d="M18.8105 23.32C17.4505 24.62 16.9105 25.18 16.7305 26.82H21.5505V29H14.1305V27.8C14.1305 25.42 15.0105 23.68 17.4105 21.62C18.4105 20.74 19.0905 19.98 19.0905 18.98C19.0905 18 18.3905 17.58 17.5505 17.58C16.5305 17.58 15.8305 18.12 15.1705 18.76L13.9705 16.98C15.0705 15.94 16.3905 15.34 18.0305 15.34C19.9105 15.34 21.5905 16.4 21.5905 18.76C21.5905 20.76 20.4505 21.68 18.8105 23.32ZM25.3949 20.46H26.7949C28.6949 20.46 30.0349 21.82 30.0349 23.86V25.84C30.0349 28 28.1749 29.2 26.2949 29.2C23.8749 29.2 22.6949 28 22.4349 25.84L24.7349 25.24C24.7949 26.4 25.2549 27.02 26.2549 27.02C26.9749 27.02 27.5349 26.56 27.5349 25.82V23.78C27.5349 22.96 26.9549 22.54 26.1949 22.54H22.8349L23.5149 15.4H29.3549V17.62H25.6549L25.3949 20.46Z" fill="url(#paint6_linear_31_1387)"/>
<defs>
<filter id="filter0_bddddi_31_1387" x="-3.4375" y="-3.4375" width="51.0125" height="51.0125" filterUnits="userSpaceOnUse" color-interpolation-filters="sRGB">
<feFlood flood-opacity="0" result="BackgroundImageFix"/>
<feGaussianBlur in="BackgroundImageFix" stdDeviation="2.40625"/>
<feComposite in2="SourceAlpha" operator="in" result="effect1_backgroundBlur_31_1387"/>
<feColorMatrix in="SourceAlpha" type="matrix" values="0 0 0 0 0 0 0 0 0 0 0 0 0 0 0 0 0 0 127 0" result="hardAlpha"/>
<feOffset/>
<feGaussianBlur stdDeviation="0.495"/>
<feColorMatrix type="matrix" values="0 0 0 0 0 0 0 0 0 0 0 0 0 0 0 0 0 0 0.25 0"/>
<feBlend mode="normal" in2="effect1_backgroundBlur_31_1387" result="effect2_dropShadow_31_1387"/>
<feColorMatrix in="SourceAlpha" type="matrix" values="0 0 0 0 0 0 0 0 0 0 0 0 0 0 0 0 0 0 127 0" result="hardAlpha"/>
<feOffset dx="0.99" dy="0.99"/>
<feGaussianBlur stdDeviation="0.495"/>
<feColorMatrix type="matrix" values="0 0 0 0 0 0 0 0 0 0 0 0 0 0 0 0 0 0 0.22 0"/>
<feBlend mode="normal" in2="effect2_dropShadow_31_1387" result="effect3_dropShadow_31_1387"/>
<feColorMatrix in="SourceAlpha" type="matrix" values="0 0 0 0 0 0 0 0 0 0 0 0 0 0 0 0 0 0 127 0" result="hardAlpha"/>
<feOffset dx="1.98" dy="1.98"/>
<feGaussianBlur stdDeviation="0.495"/>
<feColorMatrix type="matrix" values="0 0 0 0 0 0 0 0 0 0 0 0 0 0 0 0 0 0 0.13 0"/>
<feBlend mode="normal" in2="effect3_dropShadow_31_1387" result="effect4_dropShadow_31_1387"/>
<feColorMatrix in="SourceAlpha" type="matrix" values="0 0 0 0 0 0 0 0 0 0 0 0 0 0 0 0 0 0 127 0" result="hardAlpha"/>
<feOffset dx="2.97" dy="2.97"/>
<feGaussianBlur stdDeviation="0.99"/>
<feColorMatrix type="matrix" values="0 0 0 0 0 0 0 0 0 0 0 0 0 0 0 0 0 0 0.04 0"/>
<feBlend mode="normal" in2="effect4_dropShadow_31_1387" result="effect5_dropShadow_31_1387"/>
<feBlend mode="normal" in="SourceGraphic" in2="effect5_dropShadow_31_1387" result="shape"/>
<feColorMatrix in="SourceAlpha" type="matrix" values="0 0 0 0 0 0 0 0 0 0 0 0 0 0 0 0 0 0 127 0" result="hardAlpha"/>
<feMorphology radius="0.34375" operator="erode" in="SourceAlpha" result="effect6_innerShadow_31_1387"/>
<feOffset/>
<feGaussianBlur stdDeviation="0.34375"/>
<feComposite in2="hardAlpha" operator="arithmetic" k2="-1" k3="1"/>
<feColorMatrix type="matrix" values="0 0 0 0 1 0 0 0 0 1 0 0 0 0 1 0 0 0 0.25 0"/>
<feBlend mode="normal" in2="shape" result="effect6_innerShadow_31_1387"/>
</filter>
<filter id="filter1_i_31_1387" x="1.375" y="1.375" width="41.25" height="41.25" filterUnits="userSpaceOnUse" color-interpolation-filters="sRGB">
<feFlood flood-opacity="0" result="BackgroundImageFix"/>
<feBlend mode="normal" in="SourceGraphic" in2="BackgroundImageFix" result="shape"/>
<feColorMatrix in="SourceAlpha" type="matrix" values="0 0 0 0 0 0 0 0 0 0 0 0 0 0 0 0 0 0 127 0" result="hardAlpha"/>
<feMorphology radius="0.34375" operator="erode" in="SourceAlpha" result="effect1_innerShadow_31_1387"/>
<feOffset/>
<feGaussianBlur stdDeviation="0.34375"/>
<feComposite in2="hardAlpha" operator="arithmetic" k2="-1" k3="1"/>
<feColorMatrix type="matrix" values="0 0 0 0 1 0 0 0 0 1 0 0 0 0 1 0 0 0 0.25 0"/>
<feBlend mode="normal" in2="shape" result="effect1_innerShadow_31_1387"/>
</filter>
<filter id="filter2_di_31_1387" x="8.10845" y="8.45223" width="27.7833" height="27.7833" filterUnits="userSpaceOnUse" color-interpolation-filters="sRGB">
<feFlood flood-opacity="0" result="BackgroundImageFix"/>
<feColorMatrix in="SourceAlpha" type="matrix" values="0 0 0 0 0 0 0 0 0 0 0 0 0 0 0 0 0 0 127 0" result="hardAlpha"/>
<feOffset dy="0.34375"/>
<feGaussianBlur stdDeviation="0.189063"/>
<feComposite in2="hardAlpha" operator="out"/>
<feColorMatrix type="matrix" values="0 0 0 0 0 0 0 0 0 0 0 0 0 0 0 0 0 0 0.51 0"/>
<feBlend mode="normal" in2="BackgroundImageFix" result="effect1_dropShadow_31_1387"/>
<feBlend mode="normal" in="SourceGraphic" in2="effect1_dropShadow_31_1387" result="shape"/>
<feColorMatrix in="SourceAlpha" type="matrix" values="0 0 0 0 0 0 0 0 0 0 0 0 0 0 0 0 0 0 127 0" result="hardAlpha"/>
<feOffset dy="0.34375"/>
<feGaussianBlur stdDeviation="0.34375"/>
<feComposite in2="hardAlpha" operator="arithmetic" k2="-1" k3="1"/>
<feColorMatrix type="matrix" values="0 0 0 0 1 0 0 0 0 1 0 0 0 0 1 0 0 0 0.5 0"/>
<feBlend mode="normal" in2="shape" result="effect2_innerShadow_31_1387"/>
</filter>
<linearGradient id="paint0_linear_31_1387" x1="22" y1="1.375" x2="22" y2="42.625" gradientUnits="userSpaceOnUse">
<stop stop-color="white"/>
<stop offset="1"/>
</linearGradient>
<linearGradient id="paint1_linear_31_1387" x1="28.5553" y1="2.23589" x2="20.4913" y2="42.9678" gradientUnits="userSpaceOnUse">
<stop stop-color="#F4EDDC"/>
<stop offset="1" stop-color="#7F8C8E"/>
</linearGradient>
<linearGradient id="paint2_linear_31_1387" x1="28.5553" y1="2.23589" x2="20.4913" y2="42.9678" gradientUnits="userSpaceOnUse">
<stop stop-color="#F4EDDC"/>
<stop offset="1" stop-color="#7F8C8E"/>
</linearGradient>
<linearGradient id="paint3_linear_31_1387" x1="28.5553" y1="2.23589" x2="20.4913" y2="42.9678" gradientUnits="userSpaceOnUse">
<stop stop-color="#F4EDDC"/>
<stop offset="1" stop-color="#7F8C8E"/>
</linearGradient>
<linearGradient id="paint4_linear_31_1387" x1="28.5553" y1="2.23589" x2="20.4913" y2="42.9678" gradientUnits="userSpaceOnUse">
<stop stop-color="#F4EDDC"/>
<stop offset="1" stop-color="#7F8C8E"/>
</linearGradient>
<radialGradient id="paint5_angular_31_1387" cx="0" cy="0" r="1" gradientUnits="userSpaceOnUse" gradientTransform="translate(22.0001 22) rotate(90) scale(20.68)">
<stop offset="0.227265" stop-color="white" stop-opacity="0"/>
<stop offset="0.365" stop-color="white"/>
<stop offset="0.537834" stop-color="white" stop-opacity="0"/>
<stop offset="0.784159" stop-color="white" stop-opacity="0"/>
<stop offset="0.872176" stop-color="white" stop-opacity="0.47"/>
<stop offset="0.964463" stop-color="white" stop-opacity="0"/>
</radialGradient>
<linearGradient id="paint6_linear_31_1387" x1="22" y1="19" x2="22" y2="24" gradientUnits="userSpaceOnUse">
<stop stop-color="#3D3F40"/>
<stop offset="1" stop-color="#0D0D0D"/>
</linearGradient>
</defs>
</svg>
