<svg width="72" height="61" viewBox="0 0 72 61" fill="none" xmlns="http://www.w3.org/2000/svg">
  <g opacity="0.8">
    <circle cx="18" cy="27.1543" r="16.875" fill="url(#paint0_linear_5096_3542)" />
    <mask id="mask0_5096_3542" style="mask-type: alpha" maskUnits="userSpaceOnUse" x="1" y="10" width="34" height="35">
      <circle cx="18" cy="27.1543" r="15.3281" stroke="black" stroke-width="3.09375" stroke-linecap="round" />
      <circle
        cx="18"
        cy="27.1543"
        r="15.3281"
        stroke="black"
        stroke-opacity="0.2"
        stroke-width="3.09375"
        stroke-linecap="round"
      />
    </mask>
    <g mask="url(#mask0_5096_3542)">
      <rect x="13.2188" y="5.49805" width="9.84375" height="43.0312" fill="#060606" />
      <rect
        x="39.6562"
        y="22.6543"
        width="8.71875"
        height="43.0312"
        transform="rotate(90 39.6562 22.6543)"
        fill="#060606"
      />
      <path d="M37.125 26.873L-0.5625 26.873" stroke="#6E6E6E" stroke-opacity="0.4" stroke-width="1.96875" />
      <path d="M18.2812 8.0293V45.7168" stroke="#6E6E6E" stroke-opacity="0.4" stroke-width="1.96875" />
    </g>
    <circle cx="18" cy="27.1543" r="11.3906" fill="#303030" />
    <circle cx="18" cy="27.1543" r="11.3906" fill="url(#paint1_linear_5096_3542)" />
    <circle
      cx="18"
      cy="27.1543"
      r="11.3906"
      stroke="black"
      stroke-opacity="0.36"
      stroke-width="0.28125"
      stroke-linecap="round"
    />
    <circle
      cx="18"
      cy="27.1543"
      r="11.3906"
      stroke="url(#paint2_angular_5096_3542)"
      stroke-width="0.28125"
      stroke-linecap="round"
    />
    <path
      d="M11.7167 30.6148C11.7167 30.1069 12.1538 29.8234 12.6263 29.8706C13.0397 29.9179 13.2287 30.1069 13.9965 30.1069C15.0833 30.1069 15.603 29.7407 15.603 28.8665C15.603 27.9097 14.9297 27.6499 13.9729 27.6499C13.4295 27.6499 13.1224 27.7325 12.7798 27.8389C12.3782 27.9097 11.9648 27.6026 11.9648 27.012V23.5509C11.9648 23.0666 12.2955 22.7359 12.8389 22.7359H16.5008C16.9614 22.7359 17.3276 23.1375 17.3276 23.5982C17.3276 24.0589 16.9614 24.4605 16.5008 24.4605H13.7012V26.067C13.9374 26.0197 14.2091 25.9961 14.5044 25.9961C16.6189 25.9961 17.5757 27.1183 17.5757 28.7602C17.5757 30.8747 16.0283 31.8315 14.0674 31.8315C13.6776 31.8315 12.9924 31.7842 12.4727 31.548C12.0474 31.3826 11.7167 31.0991 11.7167 30.6148ZM18.226 28.3468V26.0434C18.226 23.6809 19.3837 22.5705 21.4627 22.5705C23.5771 22.5705 24.5457 23.7163 24.5457 26.0434V28.3468C24.5457 30.7447 23.3999 31.8315 21.3682 31.8315C19.3364 31.8315 18.226 30.7802 18.226 28.3468ZM20.2105 25.9607V28.4295C20.2105 29.5989 20.4232 30.1069 21.3918 30.1069C22.3013 30.1069 22.5612 29.6462 22.5612 28.4295V25.9607C22.5612 24.8267 22.3132 24.2951 21.3563 24.2951C20.5177 24.2951 20.2105 24.7085 20.2105 25.9607Z"
      fill="url(#paint3_linear_5096_3542)"
    />
    <path
      d="M28.6808 16.1085C28.9026 16.0491 29.1055 16.252 29.0461 16.4738L28.5112 18.4702C28.4518 18.692 28.1745 18.7663 28.0121 18.6039L26.5507 17.1425C26.3883 16.9801 26.4626 16.7028 26.6844 16.6434L28.6808 16.1085Z"
      fill="url(#paint4_linear_5096_3542)"
    />
    <path
      d="M28.6808 16.1085C28.9026 16.0491 29.1055 16.252 29.0461 16.4738L28.5112 18.4702C28.4518 18.692 28.1745 18.7663 28.0121 18.6039L26.5507 17.1425C26.3883 16.9801 26.4626 16.7028 26.6844 16.6434L28.6808 16.1085Z"
      fill="black"
      fill-opacity="0.69"
    />
    <path
      d="M6.9542 37.835C6.89477 38.0569 7.09774 38.2598 7.31956 38.2004L9.31589 37.6655C9.53771 37.606 9.612 37.3288 9.44962 37.1664L7.9882 35.705C7.82583 35.5426 7.54856 35.6169 7.48912 35.8387L6.9542 37.835Z"
      fill="url(#paint5_linear_5096_3542)"
    />
    <path
      d="M6.9542 37.835C6.89477 38.0569 7.09774 38.2598 7.31956 38.2004L9.31589 37.6655C9.53771 37.606 9.612 37.3288 9.44962 37.1664L7.9882 35.705C7.82583 35.5426 7.54856 35.6169 7.48912 35.8387L6.9542 37.835Z"
      fill="black"
      fill-opacity="0.69"
    />
    <path
      d="M29.0459 37.8349C29.1054 38.0567 28.9024 38.2597 28.6806 38.2002L26.6843 37.6653C26.4624 37.6059 26.3882 37.3286 26.5505 37.1662L28.0119 35.7048C28.1743 35.5424 28.4516 35.6167 28.511 35.8386L29.0459 37.8349Z"
      fill="url(#paint6_linear_5096_3542)"
    />
    <path
      d="M29.0459 37.8349C29.1054 38.0567 28.9024 38.2597 28.6806 38.2002L26.6843 37.6653C26.4624 37.6059 26.3882 37.3286 26.5505 37.1662L28.0119 35.7048C28.1743 35.5424 28.4516 35.6167 28.511 35.8386L29.0459 37.8349Z"
      fill="black"
      fill-opacity="0.69"
    />
    <path
      d="M7.3194 16.1083C7.09758 16.0489 6.89461 16.2519 6.95404 16.4737L7.48896 18.47C7.54839 18.6918 7.82566 18.7661 7.98804 18.6038L9.44946 17.1423C9.61184 16.98 9.53755 16.7027 9.31573 16.6433L7.3194 16.1083Z"
      fill="url(#paint7_linear_5096_3542)"
    />
    <path
      d="M7.3194 16.1083C7.09758 16.0489 6.89461 16.2519 6.95404 16.4737L7.48896 18.47C7.54839 18.6918 7.82566 18.7661 7.98804 18.6038L9.44946 17.1423C9.61184 16.98 9.53755 16.7027 9.31573 16.6433L7.3194 16.1083Z"
      fill="black"
      fill-opacity="0.69"
    />
    <circle
      cx="17.6535"
      cy="27.1544"
      r="16.4423"
      stroke="url(#paint8_angular_5096_3542)"
      stroke-width="0.346154"
      stroke-linecap="round"
    />
  </g>
  <g opacity="0.8">
    <circle cx="54" cy="27.1543" r="16.875" fill="url(#paint9_linear_5096_3542)" />
    <mask id="mask1_5096_3542" style="mask-type: alpha" maskUnits="userSpaceOnUse" x="37" y="10" width="34" height="35">
      <circle cx="54" cy="27.1543" r="15.3281" stroke="black" stroke-width="3.09375" stroke-linecap="round" />
      <circle
        cx="54"
        cy="27.1543"
        r="15.3281"
        stroke="black"
        stroke-opacity="0.2"
        stroke-width="3.09375"
        stroke-linecap="round"
      />
    </mask>
    <g mask="url(#mask1_5096_3542)">
      <rect x="49.2188" y="5.49805" width="9.84375" height="43.0312" fill="#060606" />
      <rect
        x="75.6562"
        y="22.6543"
        width="8.71875"
        height="43.0312"
        transform="rotate(90 75.6562 22.6543)"
        fill="#060606"
      />
      <path d="M73.125 26.873L35.4375 26.873" stroke="#6E6E6E" stroke-opacity="0.4" stroke-width="1.96875" />
      <path d="M54.2812 8.0293V45.7168" stroke="#6E6E6E" stroke-opacity="0.4" stroke-width="1.96875" />
    </g>
    <circle cx="54" cy="27.1543" r="11.3906" fill="#303030" />
    <circle cx="54" cy="27.1543" r="11.3906" fill="url(#paint10_linear_5096_3542)" />
    <circle
      cx="54"
      cy="27.1543"
      r="11.3906"
      stroke="black"
      stroke-opacity="0.36"
      stroke-width="0.28125"
      stroke-linecap="round"
    />
    <circle
      cx="54"
      cy="27.1543"
      r="11.3906"
      stroke="url(#paint11_angular_5096_3542)"
      stroke-width="0.28125"
      stroke-linecap="round"
    />
    <path
      d="M47.7167 30.6148C47.7167 30.1069 48.1538 29.8234 48.6263 29.8706C49.0397 29.9179 49.2287 30.1069 49.9965 30.1069C51.0833 30.1069 51.603 29.7407 51.603 28.8665C51.603 27.9097 50.9297 27.6499 49.9729 27.6499C49.4295 27.6499 49.1224 27.7325 48.7798 27.8389C48.3782 27.9097 47.9648 27.6026 47.9648 27.012V23.5509C47.9648 23.0666 48.2955 22.7359 48.8389 22.7359H52.5008C52.9614 22.7359 53.3276 23.1375 53.3276 23.5982C53.3276 24.0589 52.9614 24.4605 52.5008 24.4605H49.7012V26.067C49.9374 26.0197 50.2091 25.9961 50.5044 25.9961C52.6189 25.9961 53.5757 27.1183 53.5757 28.7602C53.5757 30.8747 52.0283 31.8315 50.0674 31.8315C49.6776 31.8315 48.9924 31.7842 48.4727 31.548C48.0474 31.3826 47.7167 31.0991 47.7167 30.6148ZM54.226 28.3468V26.0434C54.226 23.6809 55.3837 22.5705 57.4627 22.5705C59.5771 22.5705 60.5457 23.7163 60.5457 26.0434V28.3468C60.5457 30.7447 59.3999 31.8315 57.3682 31.8315C55.3364 31.8315 54.226 30.7802 54.226 28.3468ZM56.2105 25.9607V28.4295C56.2105 29.5989 56.4232 30.1069 57.3918 30.1069C58.3013 30.1069 58.5612 29.6462 58.5612 28.4295V25.9607C58.5612 24.8267 58.3132 24.2951 57.3563 24.2951C56.5177 24.2951 56.2105 24.7085 56.2105 25.9607Z"
      fill="url(#paint12_linear_5096_3542)"
    />
    <path
      d="M64.6808 16.1085C64.9026 16.0491 65.1055 16.252 65.0461 16.4738L64.5112 18.4702C64.4518 18.692 64.1745 18.7663 64.0121 18.6039L62.5507 17.1425C62.3883 16.9801 62.4626 16.7028 62.6844 16.6434L64.6808 16.1085Z"
      fill="url(#paint13_linear_5096_3542)"
    />
    <path
      d="M64.6808 16.1085C64.9026 16.0491 65.1055 16.252 65.0461 16.4738L64.5112 18.4702C64.4518 18.692 64.1745 18.7663 64.0121 18.6039L62.5507 17.1425C62.3883 16.9801 62.4626 16.7028 62.6844 16.6434L64.6808 16.1085Z"
      fill="black"
      fill-opacity="0.69"
    />
    <path
      d="M42.9542 37.835C42.8948 38.0569 43.0977 38.2598 43.3196 38.2004L45.3159 37.6655C45.5377 37.606 45.612 37.3288 45.4496 37.1664L43.9882 35.705C43.8258 35.5426 43.5486 35.6169 43.4891 35.8387L42.9542 37.835Z"
      fill="url(#paint14_linear_5096_3542)"
    />
    <path
      d="M42.9542 37.835C42.8948 38.0569 43.0977 38.2598 43.3196 38.2004L45.3159 37.6655C45.5377 37.606 45.612 37.3288 45.4496 37.1664L43.9882 35.705C43.8258 35.5426 43.5486 35.6169 43.4891 35.8387L42.9542 37.835Z"
      fill="black"
      fill-opacity="0.69"
    />
    <path
      d="M65.0459 37.8349C65.1054 38.0567 64.9024 38.2597 64.6806 38.2002L62.6843 37.6653C62.4624 37.6059 62.3882 37.3286 62.5505 37.1662L64.0119 35.7048C64.1743 35.5424 64.4516 35.6167 64.511 35.8386L65.0459 37.8349Z"
      fill="url(#paint15_linear_5096_3542)"
    />
    <path
      d="M65.0459 37.8349C65.1054 38.0567 64.9024 38.2597 64.6806 38.2002L62.6843 37.6653C62.4624 37.6059 62.3882 37.3286 62.5505 37.1662L64.0119 35.7048C64.1743 35.5424 64.4516 35.6167 64.511 35.8386L65.0459 37.8349Z"
      fill="black"
      fill-opacity="0.69"
    />
    <path
      d="M43.3194 16.1083C43.0976 16.0489 42.8946 16.2519 42.954 16.4737L43.489 18.47C43.5484 18.6918 43.8257 18.7661 43.988 18.6038L45.4495 17.1423C45.6118 16.98 45.5375 16.7027 45.3157 16.6433L43.3194 16.1083Z"
      fill="url(#paint16_linear_5096_3542)"
    />
    <path
      d="M43.3194 16.1083C43.0976 16.0489 42.8946 16.2519 42.954 16.4737L43.489 18.47C43.5484 18.6918 43.8257 18.7661 43.988 18.6038L45.4495 17.1423C45.6118 16.98 45.5375 16.7027 45.3157 16.6433L43.3194 16.1083Z"
      fill="black"
      fill-opacity="0.69"
    />
    <path
      d="M37.9042 27.1539C37.9042 36.4293 45.269 43.9424 54.3465 43.9424C63.424 43.9424 70.7888 36.4293 70.7888 27.1539C70.7888 17.8785 63.424 10.3655 54.3465 10.3655C45.269 10.3655 37.9042 17.8785 37.9042 27.1539Z"
      stroke="url(#paint17_angular_5096_3542)"
      stroke-width="0.346154"
      stroke-linecap="round"
    />
  </g>
  <g filter="url(#filter0_dd_5096_3542)">
    <circle cx="36" cy="27" r="21" fill="black" />
  </g>
  <defs>
    <filter
      id="filter0_dd_5096_3542"
      x="5.37692"
      y="0.461538"
      width="61.2462"
      height="64.0846"
      filterUnits="userSpaceOnUse"
      color-interpolation-filters="sRGB"
    >
      <feFlood flood-opacity="0" result="BackgroundImageFix" />
      <feColorMatrix
        in="SourceAlpha"
        type="matrix"
        values="0 0 0 0 0 0 0 0 0 0 0 0 0 0 0 0 0 0 127 0"
        result="hardAlpha"
      />
      <feOffset />
      <feGaussianBlur stdDeviation="2.76923" />
      <feComposite in2="hardAlpha" operator="out" />
      <feColorMatrix type="matrix" values="0 0 0 0 0 0 0 0 0 0 0 0 0 0 0 0 0 0 1 0" />
      <feBlend mode="normal" in2="BackgroundImageFix" result="effect1_dropShadow_5096_3542" />
      <feColorMatrix
        in="SourceAlpha"
        type="matrix"
        values="0 0 0 0 0 0 0 0 0 0 0 0 0 0 0 0 0 0 127 0"
        result="hardAlpha"
      />
      <feOffset dy="6.92308" />
      <feGaussianBlur stdDeviation="4.81154" />
      <feComposite in2="hardAlpha" operator="out" />
      <feColorMatrix type="matrix" values="0 0 0 0 0 0 0 0 0 0 0 0 0 0 0 0 0 0 1 0" />
      <feBlend mode="normal" in2="effect1_dropShadow_5096_3542" result="effect2_dropShadow_5096_3542" />
      <feBlend mode="normal" in="SourceGraphic" in2="effect2_dropShadow_5096_3542" result="shape" />
    </filter>
    <linearGradient
      id="paint0_linear_5096_3542"
      x1="34.875"
      y1="27.1543"
      x2="1.125"
      y2="27.1543"
      gradientUnits="userSpaceOnUse"
    >
      <stop stop-color="#060606" />
      <stop offset="1" stop-color="#2D2D2D" />
    </linearGradient>
    <linearGradient
      id="paint1_linear_5096_3542"
      x1="7.09615"
      y1="27.1543"
      x2="27.6923"
      y2="27.1543"
      gradientUnits="userSpaceOnUse"
    >
      <stop stop-color="#3D3F40" />
      <stop offset="1" stop-color="#252525" />
    </linearGradient>
    <radialGradient
      id="paint2_angular_5096_3542"
      cx="0"
      cy="0"
      r="1"
      gradientUnits="userSpaceOnUse"
      gradientTransform="translate(18 27.1543) rotate(90) scale(11.25)"
    >
      <stop offset="0.277628" />
      <stop offset="0.364379" stop-color="#666666" />
      <stop offset="0.462245" />
    </radialGradient>
    <linearGradient
      id="paint3_linear_5096_3542"
      x1="18.1875"
      y1="25.2257"
      x2="18.1875"
      y2="28.44"
      gradientUnits="userSpaceOnUse"
    >
      <stop stop-color="#1F1F1F" />
      <stop offset="1" stop-color="#0D0D0D" />
    </linearGradient>
    <linearGradient
      id="paint4_linear_5096_3542"
      x1="7.03126"
      y1="16.1855"
      x2="28.9687"
      y2="38.123"
      gradientUnits="userSpaceOnUse"
    >
      <stop stop-color="#2F2F2F" />
      <stop offset="1" stop-color="#0F0F0F" />
    </linearGradient>
    <linearGradient
      id="paint5_linear_5096_3542"
      x1="7.03126"
      y1="16.1855"
      x2="28.9687"
      y2="38.123"
      gradientUnits="userSpaceOnUse"
    >
      <stop stop-color="#2F2F2F" />
      <stop offset="1" stop-color="#0F0F0F" />
    </linearGradient>
    <linearGradient
      id="paint6_linear_5096_3542"
      x1="7.03126"
      y1="16.1855"
      x2="28.9687"
      y2="38.123"
      gradientUnits="userSpaceOnUse"
    >
      <stop stop-color="#2F2F2F" />
      <stop offset="1" stop-color="#0F0F0F" />
    </linearGradient>
    <linearGradient
      id="paint7_linear_5096_3542"
      x1="7.03126"
      y1="16.1855"
      x2="28.9687"
      y2="38.123"
      gradientUnits="userSpaceOnUse"
    >
      <stop stop-color="#2F2F2F" />
      <stop offset="1" stop-color="#0F0F0F" />
    </linearGradient>
    <radialGradient
      id="paint8_angular_5096_3542"
      cx="0"
      cy="0"
      r="1"
      gradientUnits="userSpaceOnUse"
      gradientTransform="translate(17.6535 27.1544) rotate(90) scale(16.6154)"
    >
      <stop offset="0.07" stop-color="white" stop-opacity="0" />
      <stop offset="0.26" stop-color="white" stop-opacity="0.51" />
      <stop offset="0.537834" stop-color="white" stop-opacity="0" />
      <stop offset="0.784159" stop-color="white" stop-opacity="0" />
      <stop offset="0.872176" stop-color="white" stop-opacity="0.47" />
      <stop offset="0.964463" stop-color="white" stop-opacity="0" />
    </radialGradient>
    <linearGradient
      id="paint9_linear_5096_3542"
      x1="70.875"
      y1="27.1543"
      x2="37.125"
      y2="27.1543"
      gradientUnits="userSpaceOnUse"
    >
      <stop stop-color="#2D2D2D" />
      <stop offset="1" stop-color="#060606" />
    </linearGradient>
    <linearGradient
      id="paint10_linear_5096_3542"
      x1="43.0962"
      y1="27.1543"
      x2="63.6923"
      y2="27.1543"
      gradientUnits="userSpaceOnUse"
    >
      <stop stop-color="#3D3F40" />
      <stop offset="1" stop-color="#252525" />
    </linearGradient>
    <radialGradient
      id="paint11_angular_5096_3542"
      cx="0"
      cy="0"
      r="1"
      gradientUnits="userSpaceOnUse"
      gradientTransform="translate(54 27.1543) rotate(90) scale(11.25)"
    >
      <stop offset="0.277628" />
      <stop offset="0.364379" stop-color="#666666" />
      <stop offset="0.462245" />
    </radialGradient>
    <linearGradient
      id="paint12_linear_5096_3542"
      x1="54.1875"
      y1="25.2257"
      x2="54.1875"
      y2="28.44"
      gradientUnits="userSpaceOnUse"
    >
      <stop stop-color="#1F1F1F" />
      <stop offset="1" stop-color="#0D0D0D" />
    </linearGradient>
    <linearGradient
      id="paint13_linear_5096_3542"
      x1="43.0313"
      y1="16.1855"
      x2="64.9687"
      y2="38.123"
      gradientUnits="userSpaceOnUse"
    >
      <stop stop-color="#2F2F2F" />
      <stop offset="1" stop-color="#0F0F0F" />
    </linearGradient>
    <linearGradient
      id="paint14_linear_5096_3542"
      x1="43.0313"
      y1="16.1855"
      x2="64.9687"
      y2="38.123"
      gradientUnits="userSpaceOnUse"
    >
      <stop stop-color="#2F2F2F" />
      <stop offset="1" stop-color="#0F0F0F" />
    </linearGradient>
    <linearGradient
      id="paint15_linear_5096_3542"
      x1="43.0313"
      y1="16.1855"
      x2="64.9687"
      y2="38.123"
      gradientUnits="userSpaceOnUse"
    >
      <stop stop-color="#2F2F2F" />
      <stop offset="1" stop-color="#0F0F0F" />
    </linearGradient>
    <linearGradient
      id="paint16_linear_5096_3542"
      x1="43.0313"
      y1="16.1855"
      x2="64.9687"
      y2="38.123"
      gradientUnits="userSpaceOnUse"
    >
      <stop stop-color="#2F2F2F" />
      <stop offset="1" stop-color="#0F0F0F" />
    </linearGradient>
    <radialGradient
      id="paint17_angular_5096_3542"
      cx="0"
      cy="0"
      r="1"
      gradientUnits="userSpaceOnUse"
      gradientTransform="translate(54.3465 27.1539) rotate(90) scale(16.9615 16.6154)"
    >
      <stop offset="0.07" stop-color="white" stop-opacity="0" />
      <stop offset="0.26" stop-color="white" stop-opacity="0.51" />
      <stop offset="0.537834" stop-color="white" stop-opacity="0" />
      <stop offset="0.784159" stop-color="white" stop-opacity="0" />
      <stop offset="0.872176" stop-color="white" stop-opacity="0.47" />
      <stop offset="0.964463" stop-color="white" stop-opacity="0" />
    </radialGradient>
  </defs>
</svg>
