<svg width="44" height="44" viewBox="0 0 44 44" fill="none" xmlns="http://www.w3.org/2000/svg">
  <g clip-path="url(#clip0_3169_15493)">
    <g clip-path="url(#clip1_3169_15493)">
      <g filter="url(#filter0_dddd_3169_15493)">
        <path
          fill-rule="evenodd"
          clip-rule="evenodd"
          d="M13.2137 15.3352C13.2137 14.7103 13.7091 14.2037 14.3202 14.2037H30.9173C31.5284 14.2037 32.0237 14.7103 32.0237 15.3352C32.0237 15.96 31.5284 16.4666 30.9173 16.4666H14.3202C13.7091 16.4666 13.2137 15.96 13.2137 15.3352ZM13.2137 22.1237C13.2137 21.4989 13.7091 20.9923 14.3202 20.9923H30.9173C31.5284 20.9923 32.0237 21.4989 32.0237 22.1237C32.0237 22.7486 31.5284 23.2552 30.9173 23.2552H14.3202C13.7091 23.2552 13.2137 22.7486 13.2137 22.1237ZM13.2137 28.9123C13.2137 28.2874 13.7091 27.7809 14.3202 27.7809H30.9173C31.5284 27.7809 32.0237 28.2874 32.0237 28.9123C32.0237 29.5372 31.5284 30.0437 30.9173 30.0437H14.3202C13.7091 30.0437 13.2137 29.5372 13.2137 28.9123Z"
          fill="url(#paint0_linear_3169_15493)"
        />
      </g>
    </g>
  </g>
  <defs>
    <filter
      id="filter0_dddd_3169_15493"
      x="10.3337"
      y="11.3237"
      width="36.09"
      height="33.12"
      filterUnits="userSpaceOnUse"
      color-interpolation-filters="sRGB"
    >
      <feFlood flood-opacity="0" result="BackgroundImageFix" />
      <feColorMatrix
        in="SourceAlpha"
        type="matrix"
        values="0 0 0 0 0 0 0 0 0 0 0 0 0 0 0 0 0 0 127 0"
        result="hardAlpha"
      />
      <feOffset />
      <feGaussianBlur stdDeviation="1.44" />
      <feColorMatrix type="matrix" values="0 0 0 0 0 0 0 0 0 0 0 0 0 0 0 0 0 0 0.25 0" />
      <feBlend mode="normal" in2="BackgroundImageFix" result="effect1_dropShadow_3169_15493" />
      <feColorMatrix
        in="SourceAlpha"
        type="matrix"
        values="0 0 0 0 0 0 0 0 0 0 0 0 0 0 0 0 0 0 127 0"
        result="hardAlpha"
      />
      <feOffset dx="2.88" dy="2.88" />
      <feGaussianBlur stdDeviation="1.44" />
      <feColorMatrix type="matrix" values="0 0 0 0 0 0 0 0 0 0 0 0 0 0 0 0 0 0 0.22 0" />
      <feBlend mode="normal" in2="effect1_dropShadow_3169_15493" result="effect2_dropShadow_3169_15493" />
      <feColorMatrix
        in="SourceAlpha"
        type="matrix"
        values="0 0 0 0 0 0 0 0 0 0 0 0 0 0 0 0 0 0 127 0"
        result="hardAlpha"
      />
      <feOffset dx="5.76" dy="5.76" />
      <feGaussianBlur stdDeviation="1.44" />
      <feColorMatrix type="matrix" values="0 0 0 0 0 0 0 0 0 0 0 0 0 0 0 0 0 0 0.13 0" />
      <feBlend mode="normal" in2="effect2_dropShadow_3169_15493" result="effect3_dropShadow_3169_15493" />
      <feColorMatrix
        in="SourceAlpha"
        type="matrix"
        values="0 0 0 0 0 0 0 0 0 0 0 0 0 0 0 0 0 0 127 0"
        result="hardAlpha"
      />
      <feOffset dx="8.64" dy="8.64" />
      <feGaussianBlur stdDeviation="2.88" />
      <feColorMatrix type="matrix" values="0 0 0 0 0 0 0 0 0 0 0 0 0 0 0 0 0 0 0.04 0" />
      <feBlend mode="normal" in2="effect3_dropShadow_3169_15493" result="effect4_dropShadow_3169_15493" />
      <feBlend mode="normal" in="SourceGraphic" in2="effect4_dropShadow_3169_15493" result="shape" />
    </filter>
    <linearGradient
      id="paint0_linear_3169_15493"
      x1="22.6187"
      y1="18.7294"
      x2="22.6187"
      y2="24.3866"
      gradientUnits="userSpaceOnUse"
    >
      <stop stop-color="#F1EDDF" />
      <stop offset="1" stop-color="#B0AA95" />
    </linearGradient>
    <clipPath id="clip0_3169_15493">
      <path
        d="M0 22C0 9.84974 9.84974 0 22 0C34.1503 0 44 9.84974 44 22C44 34.1503 34.1503 44 22 44C9.84974 44 0 34.1503 0 22Z"
        fill="white"
      />
    </clipPath>
    <clipPath id="clip1_3169_15493">
      <rect width="44" height="44" rx="22" fill="white" />
    </clipPath>
  </defs>
</svg>
