<svg width="53" height="14" viewBox="0 0 53 14" fill="none" xmlns="http://www.w3.org/2000/svg">
  <g opacity="0.3" filter="url(#filter0_dddd_6001_75606)">
    <path
      d="M7.28208 3.05862L7.24024 3.07683C5.54935 1.52801 3.02312 2.57129 3.02312 5.03735C3.02312 7.73448 5.19155 9.39952 7.43357 7.52022L7.48551 7.55243L7.10751 8.48648C0.74359 10.2355 0.271814 1.74087 5.72248 2.00694C6.1048 2.02515 6.75692 2.31082 6.96179 2.2114L7.28208 3.05862Z"
      fill="url(#paint0_linear_6001_75606)"
    />
    <path
      d="M10.9365 6.82843C10.9452 7.4684 10.9365 8.04396 11.0736 8.61951H9.94105C10.169 6.7234 10.1676 3.94646 9.94105 2.05035C10.811 2.18059 11.808 1.81929 12.7039 2.11477C14.4135 2.54889 14.3255 5.02895 12.763 5.6017C13.2896 6.18706 14.4857 8.29182 15.2215 8.60271V8.62091H13.8581C13.7946 8.24561 12.134 6.17586 11.9133 5.81736C11.5887 5.84677 11.2612 5.85377 10.9365 5.79916V6.82983V6.82843ZM10.9365 5.44066C13.6994 6.16746 13.7643 1.43139 10.9365 2.40745V5.44066Z"
      fill="url(#paint1_linear_6001_75606)"
    />
    <path
      d="M19.4732 5.46867C19.4949 6.43353 19.3982 7.71207 19.6103 8.62091H18.4777C18.6812 7.73308 18.596 6.50355 18.6148 5.56109C18.1257 4.98974 16.4117 2.45226 15.8015 2.06996V2.05175H17.2312C17.2658 2.72813 18.8399 4.43799 19.2034 5.02055C19.5598 4.42819 20.9953 2.68472 21.1713 2.05175H22.0918V2.06996C21.5623 2.45226 19.9104 4.92672 19.4718 5.46867H19.4732Z"
      fill="url(#paint2_linear_6001_75606)"
    />
    <path
      d="M27.4732 3.23227H27.3462C26.1747 0.969264 23.1479 2.94659 25.3495 4.48701C26.2728 5.13398 27.7892 5.83137 27.7993 7.0665C27.8166 9.01722 25.0941 9.12085 23.6211 8.29042L23.7538 7.27795H23.8981C24.2487 8.97521 27.6478 8.89819 26.961 6.87745C26.5412 5.64372 24.38 5.40845 23.9731 4.20553C23.321 2.27721 25.7419 1.465 27.5136 2.27441L27.4732 3.23367V3.23227Z"
      fill="url(#paint3_linear_6001_75606)"
    />
    <path
      d="M32.0885 2.45366C31.22 2.45646 30.4077 2.55029 29.6344 2.75614L29.7715 2.01394C31.3715 2.07136 33.6698 2.07136 35.2698 2.01394L35.4068 2.75614C34.6292 2.55169 33.8198 2.45646 32.9484 2.45366C32.9974 3.74761 32.82 7.41379 33.0855 8.61951H31.9572C32.2155 7.43199 32.0409 3.7238 32.09 2.45366H32.0885Z"
      fill="url(#paint4_linear_6001_75606)"
    />
    <path
      d="M41.3495 8.60131C41.3552 8.5859 41.361 8.5635 41.3639 8.53269C41.3668 8.50188 41.3682 8.47527 41.3682 8.45007C41.3682 8.35624 41.3552 8.25121 41.3278 8.13638C41.3004 8.02155 41.2499 7.87871 41.1749 7.70787L40.6036 6.46153C40.4276 6.45593 40.1924 6.45173 39.8995 6.45173H38.2317C38.0009 6.45173 37.7917 6.45453 37.607 6.46153L37.0645 7.67146C37.0169 7.78489 36.9664 7.90812 36.913 8.04256C36.8597 8.17699 36.8322 8.31283 36.8322 8.45007C36.8322 8.48928 36.8351 8.52289 36.8423 8.54809C36.8481 8.5747 36.8553 8.59151 36.8611 8.60131V8.61951H35.8988V8.60131C35.9551 8.54389 36.0258 8.44026 36.1109 8.29182C36.196 8.14338 36.2883 7.95854 36.3893 7.73448L39.093 1.91312H39.471L42.0333 7.51182C42.0925 7.64345 42.1545 7.77088 42.2194 7.89412C42.2844 8.01735 42.3449 8.12798 42.4012 8.22601C42.4575 8.32403 42.508 8.40665 42.5527 8.47387C42.596 8.54109 42.6263 8.5845 42.6422 8.60271V8.62091H41.3495V8.60131ZM38.2909 6.05963C38.4726 6.05963 38.6602 6.05963 38.8521 6.05683C39.044 6.05543 39.2315 6.05403 39.4162 6.05262C39.6009 6.05122 39.7769 6.04982 39.9471 6.04842C40.1174 6.04702 40.2717 6.04422 40.4102 6.04142L39.0844 3.13284L37.7816 6.05963H38.2909Z"
      fill="url(#paint5_linear_6001_75606)"
    />
    <path
      d="M45.405 8.21761C46.3082 8.21761 47.2604 8.11678 48.0798 7.91512L47.9428 8.65732C47.0584 8.60551 45.3127 8.62371 44.4081 8.62091C44.6375 6.72621 44.6375 3.94646 44.4081 2.05175H45.5406C45.2752 3.24067 45.4526 6.94466 45.4036 8.21761H45.405Z"
      fill="url(#paint6_linear_6001_75606)"
    />
  </g>
  <defs>
    <filter
      id="filter0_dddd_6001_75606"
      x="0.975835"
      y="0.931783"
      width="52.0107"
      height="12.7573"
      filterUnits="userSpaceOnUse"
      color-interpolation-filters="sRGB"
    >
      <feFlood flood-opacity="0" result="BackgroundImageFix" />
      <feColorMatrix
        in="SourceAlpha"
        type="matrix"
        values="0 0 0 0 0 0 0 0 0 0 0 0 0 0 0 0 0 0 127 0"
        result="hardAlpha"
      />
      <feOffset />
      <feGaussianBlur stdDeviation="0.490667" />
      <feColorMatrix type="matrix" values="0 0 0 0 0 0 0 0 0 0 0 0 0 0 0 0 0 0 0.25 0" />
      <feBlend mode="normal" in2="BackgroundImageFix" result="effect1_dropShadow_6001_75606" />
      <feColorMatrix
        in="SourceAlpha"
        type="matrix"
        values="0 0 0 0 0 0 0 0 0 0 0 0 0 0 0 0 0 0 127 0"
        result="hardAlpha"
      />
      <feOffset dx="0.981333" dy="0.981333" />
      <feGaussianBlur stdDeviation="0.490667" />
      <feColorMatrix type="matrix" values="0 0 0 0 0 0 0 0 0 0 0 0 0 0 0 0 0 0 0.22 0" />
      <feBlend mode="normal" in2="effect1_dropShadow_6001_75606" result="effect2_dropShadow_6001_75606" />
      <feColorMatrix
        in="SourceAlpha"
        type="matrix"
        values="0 0 0 0 0 0 0 0 0 0 0 0 0 0 0 0 0 0 127 0"
        result="hardAlpha"
      />
      <feOffset dx="1.96267" dy="1.96267" />
      <feGaussianBlur stdDeviation="0.490667" />
      <feColorMatrix type="matrix" values="0 0 0 0 0 0 0 0 0 0 0 0 0 0 0 0 0 0 0.13 0" />
      <feBlend mode="normal" in2="effect2_dropShadow_6001_75606" result="effect3_dropShadow_6001_75606" />
      <feColorMatrix
        in="SourceAlpha"
        type="matrix"
        values="0 0 0 0 0 0 0 0 0 0 0 0 0 0 0 0 0 0 127 0"
        result="hardAlpha"
      />
      <feOffset dx="2.944" dy="2.944" />
      <feGaussianBlur stdDeviation="0.981333" />
      <feColorMatrix type="matrix" values="0 0 0 0 0 0 0 0 0 0 0 0 0 0 0 0 0 0 0.04 0" />
      <feBlend mode="normal" in2="effect3_dropShadow_6001_75606" result="effect4_dropShadow_6001_75606" />
      <feBlend mode="normal" in="SourceGraphic" in2="effect4_dropShadow_6001_75606" result="shape" />
    </filter>
    <linearGradient
      id="paint0_linear_6001_75606"
      x1="25.0185"
      y1="3.87578"
      x2="25.0185"
      y2="6.32912"
      gradientUnits="userSpaceOnUse"
    >
      <stop stop-color="#F1EDDF" />
      <stop offset="1" stop-color="#B0AA95" />
    </linearGradient>
    <linearGradient
      id="paint1_linear_6001_75606"
      x1="25.0185"
      y1="3.87578"
      x2="25.0185"
      y2="6.32912"
      gradientUnits="userSpaceOnUse"
    >
      <stop stop-color="#F1EDDF" />
      <stop offset="1" stop-color="#B0AA95" />
    </linearGradient>
    <linearGradient
      id="paint2_linear_6001_75606"
      x1="25.0185"
      y1="3.87578"
      x2="25.0185"
      y2="6.32912"
      gradientUnits="userSpaceOnUse"
    >
      <stop stop-color="#F1EDDF" />
      <stop offset="1" stop-color="#B0AA95" />
    </linearGradient>
    <linearGradient
      id="paint3_linear_6001_75606"
      x1="25.0185"
      y1="3.87578"
      x2="25.0185"
      y2="6.32912"
      gradientUnits="userSpaceOnUse"
    >
      <stop stop-color="#F1EDDF" />
      <stop offset="1" stop-color="#B0AA95" />
    </linearGradient>
    <linearGradient
      id="paint4_linear_6001_75606"
      x1="25.0185"
      y1="3.87578"
      x2="25.0185"
      y2="6.32912"
      gradientUnits="userSpaceOnUse"
    >
      <stop stop-color="#F1EDDF" />
      <stop offset="1" stop-color="#B0AA95" />
    </linearGradient>
    <linearGradient
      id="paint5_linear_6001_75606"
      x1="25.0185"
      y1="3.87578"
      x2="25.0185"
      y2="6.32912"
      gradientUnits="userSpaceOnUse"
    >
      <stop stop-color="#F1EDDF" />
      <stop offset="1" stop-color="#B0AA95" />
    </linearGradient>
    <linearGradient
      id="paint6_linear_6001_75606"
      x1="25.0185"
      y1="3.87578"
      x2="25.0185"
      y2="6.32912"
      gradientUnits="userSpaceOnUse"
    >
      <stop stop-color="#F1EDDF" />
      <stop offset="1" stop-color="#B0AA95" />
    </linearGradient>
  </defs>
</svg>
