<svg width="20" height="20" viewBox="0 0 20 20" fill="none" xmlns="http://www.w3.org/2000/svg">
<g clip-path="url(#clip0_2641_19388)">
<g filter="url(#filter0_dddd_2641_19388)">
<path fill-rule="evenodd" clip-rule="evenodd" d="M9.99982 1.93548C5.54603 1.93548 1.93546 5.54611 1.93546 9.99996C1.93546 14.4539 5.54604 18.0645 9.99982 18.0645C14.4537 18.0645 18.0643 14.4539 18.0643 9.99996C18.0643 9.46549 18.4976 9.03222 19.032 9.03222C19.5665 9.03222 19.9997 9.46549 19.9997 9.99996C19.9997 15.5228 15.5226 20 9.99982 20C4.4771 20 0 15.5228 0 9.99996C0 4.47718 4.47711 0 9.99982 0C13.1396 0 15.9404 1.44719 17.773 3.70866L18.1068 2.61964C18.2634 2.10863 18.8046 1.82134 19.3156 1.97796C19.8266 2.13458 20.1139 2.6758 19.9573 3.1868L19.0148 6.2619C18.8902 6.66847 18.5148 6.94606 18.0895 6.94606H15.2901C14.7556 6.94606 14.3224 6.51279 14.3224 5.97832C14.3224 5.44385 14.7556 5.01058 15.2901 5.01058H16.3362C14.8587 3.13675 12.5689 1.93548 9.99982 1.93548Z" fill="url(#paint0_linear_2641_19388)"/>
</g>
</g>
<defs>
<filter id="filter0_dddd_2641_19388" x="-2.88" y="-2.88" width="37.28" height="37.28" filterUnits="userSpaceOnUse" color-interpolation-filters="sRGB">
<feFlood flood-opacity="0" result="BackgroundImageFix"/>
<feColorMatrix in="SourceAlpha" type="matrix" values="0 0 0 0 0 0 0 0 0 0 0 0 0 0 0 0 0 0 127 0" result="hardAlpha"/>
<feOffset/>
<feGaussianBlur stdDeviation="1.44"/>
<feColorMatrix type="matrix" values="0 0 0 0 0 0 0 0 0 0 0 0 0 0 0 0 0 0 0.25 0"/>
<feBlend mode="normal" in2="BackgroundImageFix" result="effect1_dropShadow_2641_19388"/>
<feColorMatrix in="SourceAlpha" type="matrix" values="0 0 0 0 0 0 0 0 0 0 0 0 0 0 0 0 0 0 127 0" result="hardAlpha"/>
<feOffset dx="2.88" dy="2.88"/>
<feGaussianBlur stdDeviation="1.44"/>
<feColorMatrix type="matrix" values="0 0 0 0 0 0 0 0 0 0 0 0 0 0 0 0 0 0 0.22 0"/>
<feBlend mode="normal" in2="effect1_dropShadow_2641_19388" result="effect2_dropShadow_2641_19388"/>
<feColorMatrix in="SourceAlpha" type="matrix" values="0 0 0 0 0 0 0 0 0 0 0 0 0 0 0 0 0 0 127 0" result="hardAlpha"/>
<feOffset dx="5.76" dy="5.76"/>
<feGaussianBlur stdDeviation="1.44"/>
<feColorMatrix type="matrix" values="0 0 0 0 0 0 0 0 0 0 0 0 0 0 0 0 0 0 0.13 0"/>
<feBlend mode="normal" in2="effect2_dropShadow_2641_19388" result="effect3_dropShadow_2641_19388"/>
<feColorMatrix in="SourceAlpha" type="matrix" values="0 0 0 0 0 0 0 0 0 0 0 0 0 0 0 0 0 0 127 0" result="hardAlpha"/>
<feOffset dx="8.64" dy="8.64"/>
<feGaussianBlur stdDeviation="2.88"/>
<feColorMatrix type="matrix" values="0 0 0 0 0 0 0 0 0 0 0 0 0 0 0 0 0 0 0.04 0"/>
<feBlend mode="normal" in2="effect3_dropShadow_2641_19388" result="effect4_dropShadow_2641_19388"/>
<feBlend mode="normal" in="SourceGraphic" in2="effect4_dropShadow_2641_19388" result="shape"/>
</filter>
<linearGradient id="paint0_linear_2641_19388" x1="10" y1="5.71429" x2="10" y2="12.8571" gradientUnits="userSpaceOnUse">
<stop stop-color="#F1EDDF"/>
<stop offset="1" stop-color="#B0AA95"/>
</linearGradient>
<clipPath id="clip0_2641_19388">
<rect width="20" height="20" fill="white"/>
</clipPath>
</defs>
</svg>
