<svg width="44" height="44" viewBox="0 0 44 44" fill="none" xmlns="http://www.w3.org/2000/svg">
  <g clip-path="url(#clip0_3169_15490)">
    <g filter="url(#filter0_d_3169_15490)">
      <path
        fill-rule="evenodd"
        clip-rule="evenodd"
        d="M17.7665 12.4976C18.162 12.8752 18.1766 13.5018 17.7991 13.8973L15.1966 16.6237H26.323C29.6962 16.6237 32.353 19.4749 32.353 22.8938V23.7738C32.353 27.1927 29.6962 30.0438 26.323 30.0438H14.563C14.0162 30.0438 13.573 29.6005 13.573 29.0538C13.573 28.507 14.0162 28.0638 14.563 28.0638H26.323C28.5168 28.0638 30.373 26.187 30.373 23.7738V22.8938C30.373 20.4806 28.5168 18.6037 26.323 18.6037H15.1966L17.7991 21.3302C18.1766 21.7257 18.162 22.3524 17.7665 22.7299C17.371 23.1074 16.7443 23.0928 16.3668 22.6973L12.1668 18.2973C11.8017 17.9147 11.8017 17.3127 12.1669 16.9301L16.3668 12.5302C16.7444 12.1347 17.371 12.1201 17.7665 12.4976Z"
        fill="url(#paint0_linear_3169_15490)"
      />
    </g>
  </g>
  <defs>
    <filter
      id="filter0_d_3169_15490"
      x="7.89297"
      y="12.2238"
      width="28.46"
      height="25.82"
      filterUnits="userSpaceOnUse"
      color-interpolation-filters="sRGB"
    >
      <feFlood flood-opacity="0" result="BackgroundImageFix" />
      <feColorMatrix
        in="SourceAlpha"
        type="matrix"
        values="0 0 0 0 0 0 0 0 0 0 0 0 0 0 0 0 0 0 127 0"
        result="hardAlpha"
      />
      <feOffset dy="4" />
      <feGaussianBlur stdDeviation="2" />
      <feComposite in2="hardAlpha" operator="out" />
      <feColorMatrix type="matrix" values="0 0 0 0 0 0 0 0 0 0 0 0 0 0 0 0 0 0 0.25 0" />
      <feBlend mode="normal" in2="BackgroundImageFix" result="effect1_dropShadow_3169_15490" />
      <feBlend mode="normal" in="SourceGraphic" in2="effect1_dropShadow_3169_15490" result="shape" />
    </filter>
    <linearGradient
      id="paint0_linear_3169_15490"
      x1="22.123"
      y1="17.3152"
      x2="22.123"
      y2="23.6795"
      gradientUnits="userSpaceOnUse"
    >
      <stop stop-color="#EFEACF" />
      <stop offset="1" stop-color="#AAA48F" />
    </linearGradient>
    <clipPath id="clip0_3169_15490">
      <path
        d="M0 22C0 9.84974 9.84974 0 22 0C34.1503 0 44 9.84974 44 22C44 34.1503 34.1503 44 22 44C9.84974 44 0 34.1503 0 22Z"
        fill="white"
      />
    </clipPath>
  </defs>
</svg>
