<svg
  width="140"
  height="140"
  viewBox="0 0 140 140"
  fill="none"
  xmlns="http://www.w3.org/2000/svg"
>
  <path
    fill-rule="evenodd"
    clip-rule="evenodd"
    d="M62.6634 3.97333C66.7152 -0.0783809 73.2847 -0.0783809 77.3364 3.97333L96.8995 23.5366C100.951 27.5883 100.951 34.1574 96.8995 38.2091L77.3364 57.7721C73.2847 61.8238 66.7152 61.8238 62.6634 57.7721L43.1004 38.2091C39.0487 34.1574 39.0487 27.5883 43.1004 23.5366L62.6634 3.97333ZM101.79 43.0999C105.842 39.0482 112.411 39.0482 116.463 43.0999L136.026 62.6635C140.078 66.7146 140.078 73.2841 136.026 77.3359L116.463 96.899C112.411 100.951 105.842 100.951 101.79 96.899L82.2272 77.3359C78.1754 73.2841 78.1754 66.7146 82.2272 62.6635L101.79 43.0999ZM23.5371 43.0999C27.5888 39.0482 34.1579 39.0482 38.2096 43.0999L57.7726 62.6635C61.8244 66.7146 61.8244 73.2841 57.7726 77.3359L38.2096 96.899C34.1579 100.951 27.5888 100.951 23.5371 96.899L3.97384 77.3359C-0.0778698 73.2841 -0.0778698 66.7146 3.97384 62.6635L23.5371 43.0999ZM62.6634 82.2266C66.7152 78.1749 73.2847 78.1749 77.3364 82.2266L96.8995 101.79C100.951 105.842 100.951 112.41 96.8995 116.462L77.3364 136.026C73.2847 140.077 66.7152 140.077 62.6634 136.026L43.1004 116.462C39.0487 112.41 39.0487 105.842 43.1004 101.79L62.6634 82.2266Z"
    fill="#FA00FF"
  />
</svg>
