<svg width="24" height="24" viewBox="0 0 24 24" fill="none" xmlns="http://www.w3.org/2000/svg">
  <path
    fill-rule="evenodd"
    clip-rule="evenodd"
    d="M12 3.80001C7.47126 3.80001 3.8 7.47128 3.8 12C3.8 16.5287 7.47126 20.2 12 20.2C16.5287 20.2 20.2 16.5287 20.2 12C20.2 7.47128 16.5287 3.80001 12 3.80001ZM2.2 12C2.2 6.58762 6.58761 2.20001 12 2.20001C17.4124 2.20001 21.8 6.58762 21.8 12C21.8 17.4124 17.4124 21.8 12 21.8C6.58761 21.8 2.2 17.4124 2.2 12ZM9.18431 9.18433C9.49673 8.87191 10.0033 8.87191 10.3157 9.18433L12 10.8686L13.6843 9.18433C13.9967 8.87191 14.5033 8.87191 14.8157 9.18433C15.1281 9.49675 15.1281 10.0033 14.8157 10.3157L13.1314 12L14.8157 13.6843C15.1281 13.9967 15.1281 14.5033 14.8157 14.8157C14.5033 15.1281 13.9967 15.1281 13.6843 14.8157L12 13.1314L10.3157 14.8157C10.0033 15.1281 9.49673 15.1281 9.18431 14.8157C8.87189 14.5033 8.87189 13.9967 9.18431 13.6843L10.8686 12L9.18431 10.3157C8.87189 10.0033 8.87189 9.49675 9.18431 9.18433Z"
    fill="#D94747"
  />
</svg>
