<svg width="24" height="24" viewBox="0 0 24 24" fill="none" xmlns="http://www.w3.org/2000/svg">
  <path
    fill-rule="evenodd"
    clip-rule="evenodd"
    d="M12 3.80001C7.47128 3.80001 3.80001 7.47128 3.80001 12C3.80001 16.5287 7.47128 20.2 12 20.2C16.5287 20.2 20.2 16.5287 20.2 12C20.2 7.47128 16.5287 3.80001 12 3.80001ZM2.20001 12C2.20001 6.58762 6.58762 2.20001 12 2.20001C17.4124 2.20001 21.8 6.58762 21.8 12C21.8 17.4124 17.4124 21.8 12 21.8C6.58762 21.8 2.20001 17.4124 2.20001 12ZM11.2 8.25001C11.2 7.80818 11.5582 7.45001 12 7.45001H12.0075C12.4493 7.45001 12.8075 7.80818 12.8075 8.25001V8.25751C12.8075 8.69934 12.4493 9.05751 12.0075 9.05751H12C11.5582 9.05751 11.2 8.69934 11.2 8.25751V8.25001ZM11.5528 11.9906C11.169 12.1479 10.723 11.9848 10.5345 11.6078C10.3369 11.2126 10.4971 10.7321 10.8922 10.5345L10.9337 10.5137C12.1182 9.9215 13.4518 10.9913 13.1306 12.276L12.4473 15.0095C12.831 14.8521 13.277 15.0152 13.4655 15.3922C13.6631 15.7874 13.503 16.268 13.1078 16.4655L13.0663 16.4863L13.0663 16.4863C11.8819 17.0785 10.5482 16.0087 10.8694 14.724L11.5528 11.9906Z"
    fill="url(#paint0_linear_89_18116)"
  />
  <defs>
    <linearGradient
      id="paint0_linear_89_18116"
      x1="12.6389"
      y1="2.20001"
      x2="8.12963"
      y2="20.7044"
      gradientUnits="userSpaceOnUse"
    >
      <stop stop-color="#C9AE8D" />
      <stop offset="1" stop-color="#A57D4E" />
    </linearGradient>
  </defs>
</svg>
