<svg viewBox="0 0 48 48" fill="none" xmlns="http://www.w3.org/2000/svg">
  <g filter="url(#filter0_bddddi_31_1165)">
    <circle cx="22" cy="22" r="20.625" fill="#16664E" />
  </g>
  <mask id="mask0_31_1165" style="mask-type: alpha" maskUnits="userSpaceOnUse" x="1" y="1" width="42" height="42">
    <circle cx="22" cy="22" r="18.7344" stroke="black" stroke-width="3.78125" stroke-linecap="round" />
  </mask>
  <g mask="url(#mask0_31_1165)">
    <rect x="16.1562" y="-4.46875" width="12.0312" height="52.5938" fill="#93055B" />
    <rect x="48.4688" y="16.5" width="10.6563" height="52.5938" transform="rotate(90 48.4688 16.5)" fill="#93055B" />
    <path d="M45.375 19.9375L-0.6875 19.9375" stroke="#FE971D" stroke-width="1.71875" />
    <path d="M45.375 23.7188L-0.6875 23.7187" stroke="#FE971D" stroke-width="1.71875" />
    <path d="M20.4531 -1.20312V44.8594" stroke="#FE971D" stroke-width="1.71875" />
    <path d="M24.2344 -1.20312V44.8594" stroke="#FE971D" stroke-width="1.71875" />
  </g>
  <circle cx="22" cy="22" r="13.5781" fill="#E7E6DE" stroke="black" stroke-width="0.34375" stroke-linecap="round" />
  <g style="mix-blend-mode: overlay" filter="url(#filter1_i_31_1165)">
    <circle cx="22" cy="22" r="20.625" fill="url(#paint0_linear_31_1165)" fill-opacity="0.25" />
  </g>
  <g filter="url(#filter2_di_31_1165)">
    <path
      d="M35.0543 8.49957C35.3254 8.42693 35.5734 8.67501 35.5008 8.94612L34.847 11.3861C34.7744 11.6572 34.4355 11.748 34.237 11.5495L32.4508 9.76335C32.2524 9.56488 32.3432 9.226 32.6143 9.15336L35.0543 8.49957Z"
      fill="#2E3135"
    />
    <path
      d="M35.0543 8.49957C35.3254 8.42693 35.5734 8.67501 35.5008 8.94612L34.847 11.3861C34.7744 11.6572 34.4355 11.748 34.237 11.5495L32.4508 9.76335C32.2524 9.56488 32.3432 9.226 32.6143 9.15336L35.0543 8.49957Z"
      fill="url(#paint1_linear_31_1165)"
    />
    <path
      d="M8.49958 35.0542C8.42694 35.3254 8.67502 35.5734 8.94613 35.5008L11.3861 34.847C11.6572 34.7744 11.748 34.4355 11.5495 34.237L9.76336 32.4508C9.5649 32.2524 9.22601 32.3432 9.15337 32.6143L8.49958 35.0542Z"
      fill="#2E3135"
    />
    <path
      d="M8.49958 35.0542C8.42694 35.3254 8.67502 35.5734 8.94613 35.5008L11.3861 34.847C11.6572 34.7744 11.748 34.4355 11.5495 34.237L9.76336 32.4508C9.5649 32.2524 9.22601 32.3432 9.15337 32.6143L8.49958 35.0542Z"
      fill="url(#paint2_linear_31_1165)"
    />
    <path
      d="M35.5006 35.0541C35.5732 35.3252 35.3252 35.5732 35.0541 35.5006L32.6141 34.8468C32.343 34.7742 32.2522 34.4353 32.4507 34.2368L34.2368 32.4506C34.4353 32.2522 34.7742 32.343 34.8468 32.6141L35.5006 35.0541Z"
      fill="#2E3135"
    />
    <path
      d="M35.5006 35.0541C35.5732 35.3252 35.3252 35.5732 35.0541 35.5006L32.6141 34.8468C32.343 34.7742 32.2522 34.4353 32.4507 34.2368L34.2368 32.4506C34.4353 32.2522 34.7742 32.343 34.8468 32.6141L35.5006 35.0541Z"
      fill="url(#paint3_linear_31_1165)"
    />
    <path
      d="M8.94593 8.49938C8.67482 8.42674 8.42674 8.67482 8.49939 8.94593L9.15317 11.3859C9.22581 11.657 9.5647 11.7478 9.76316 11.5493L11.5493 9.76316C11.7478 9.56469 11.657 9.22581 11.3859 9.15317L8.94593 8.49938Z"
      fill="#2E3135"
    />
    <path
      d="M8.94593 8.49938C8.67482 8.42674 8.42674 8.67482 8.49939 8.94593L9.15317 11.3859C9.22581 11.657 9.5647 11.7478 9.76316 11.5493L11.5493 9.76316C11.7478 9.56469 11.657 9.22581 11.3859 9.15317L8.94593 8.49938Z"
      fill="url(#paint4_linear_31_1165)"
    />
  </g>
  <circle
    cx="22.0001"
    cy="22"
    r="20.3362"
    stroke="url(#paint5_angular_31_1165)"
    stroke-width="0.6875"
    stroke-linecap="round"
  />
  <mask id="path-13-outside-1_31_1165" maskUnits="userSpaceOnUse" x="9.5" y="15" width="25" height="15" fill="black">
    <rect fill="white" x="9.5" y="15" width="25" height="15" />
    <path
      d="M15.3126 23.172C14.1566 24.277 13.6976 24.753 13.5446 26.147H17.6416V28H11.3346V26.98C11.3346 24.957 12.0826 23.478 14.1226 21.727C14.9726 20.979 15.5506 20.333 15.5506 19.483C15.5506 18.65 14.9556 18.293 14.2416 18.293C13.3746 18.293 12.7796 18.752 12.2186 19.296L11.1986 17.783C12.1336 16.899 13.2556 16.389 14.6496 16.389C16.2476 16.389 17.6756 17.29 17.6756 19.296C17.6756 20.996 16.7066 21.778 15.3126 23.172ZM20.9093 20.741H22.0993C23.7143 20.741 24.8533 21.897 24.8533 23.631V25.314C24.8533 27.15 23.2723 28.17 21.6743 28.17C19.6173 28.17 18.6143 27.15 18.3933 25.314L20.3483 24.804C20.3993 25.79 20.7903 26.317 21.6403 26.317C22.2523 26.317 22.7283 25.926 22.7283 25.297V23.563C22.7283 22.866 22.2353 22.509 21.5893 22.509H18.7333L19.3113 16.44H24.2753V18.327H21.1303L20.9093 20.741ZM29.1156 16.27C31.1386 16.27 32.6686 17.562 32.6686 19.67V24.838C32.6686 26.963 31.1216 28.17 29.1156 28.17C27.0756 28.17 25.5966 26.946 25.5966 24.838V19.67C25.5966 17.562 27.0756 16.27 29.1156 16.27ZM30.5436 24.838V19.67C30.5436 18.684 30.1186 18.157 29.1156 18.157C28.2656 18.157 27.7046 18.684 27.7046 19.67V24.838C27.7046 25.807 28.2826 26.317 29.1156 26.317C29.9656 26.317 30.5436 25.824 30.5436 24.838Z"
    />
  </mask>
  <!-- <path
    d="M15.3126 23.172C14.1566 24.277 13.6976 24.753 13.5446 26.147H17.6416V28H11.3346V26.98C11.3346 24.957 12.0826 23.478 14.1226 21.727C14.9726 20.979 15.5506 20.333 15.5506 19.483C15.5506 18.65 14.9556 18.293 14.2416 18.293C13.3746 18.293 12.7796 18.752 12.2186 19.296L11.1986 17.783C12.1336 16.899 13.2556 16.389 14.6496 16.389C16.2476 16.389 17.6756 17.29 17.6756 19.296C17.6756 20.996 16.7066 21.778 15.3126 23.172ZM20.9093 20.741H22.0993C23.7143 20.741 24.8533 21.897 24.8533 23.631V25.314C24.8533 27.15 23.2723 28.17 21.6743 28.17C19.6173 28.17 18.6143 27.15 18.3933 25.314L20.3483 24.804C20.3993 25.79 20.7903 26.317 21.6403 26.317C22.2523 26.317 22.7283 25.926 22.7283 25.297V23.563C22.7283 22.866 22.2353 22.509 21.5893 22.509H18.7333L19.3113 16.44H24.2753V18.327H21.1303L20.9093 20.741ZM29.1156 16.27C31.1386 16.27 32.6686 17.562 32.6686 19.67V24.838C32.6686 26.963 31.1216 28.17 29.1156 28.17C27.0756 28.17 25.5966 26.946 25.5966 24.838V19.67C25.5966 17.562 27.0756 16.27 29.1156 16.27ZM30.5436 24.838V19.67C30.5436 18.684 30.1186 18.157 29.1156 18.157C28.2656 18.157 27.7046 18.684 27.7046 19.67V24.838C27.7046 25.807 28.2826 26.317 29.1156 26.317C29.9656 26.317 30.5436 25.824 30.5436 24.838Z"
    fill="url(#paint6_linear_31_1165)"
  /> -->
  <path
    d="M15.3126 23.172L16.0035 23.8949L16.0117 23.8871L16.0197 23.8791L15.3126 23.172ZM13.5446 26.147L12.5505 26.0379L12.4288 27.147H13.5446V26.147ZM17.6416 26.147H18.6416V25.147H17.6416V26.147ZM17.6416 28V29H18.6416V28H17.6416ZM11.3346 28H10.3346V29H11.3346V28ZM14.1226 21.727L14.7739 22.4859L14.7832 22.4777L14.1226 21.727ZM12.2186 19.296L11.3894 19.855L12.0571 20.8455L12.9147 20.0139L12.2186 19.296ZM11.1986 17.783L10.5115 17.0564L9.89539 17.6389L10.3694 18.342L11.1986 17.783ZM14.6216 22.4491C14.064 22.9821 13.5666 23.4597 13.2122 24.0089C12.828 24.6043 12.639 25.2319 12.5505 26.0379L14.5386 26.2561C14.6031 25.6681 14.7202 25.3607 14.8927 25.0933C15.095 24.7798 15.4051 24.4669 16.0035 23.8949L14.6216 22.4491ZM13.5446 27.147H17.6416V25.147H13.5446V27.147ZM16.6416 26.147V28H18.6416V26.147H16.6416ZM17.6416 27H11.3346V29H17.6416V27ZM12.3346 28V26.98H10.3346V28H12.3346ZM12.3346 26.98C12.3346 26.1032 12.494 25.3922 12.8489 24.7165C13.2115 24.0261 13.8091 23.3139 14.7739 22.4858L13.4712 20.9682C12.396 21.8911 11.5996 22.7939 11.0783 23.7865C10.5492 24.7938 10.3346 25.8338 10.3346 26.98H12.3346ZM14.7832 22.4777C15.6097 21.7504 16.5506 20.8319 16.5506 19.483H14.5506C14.5506 19.8341 14.3354 20.2076 13.4619 20.9763L14.7832 22.4777ZM16.5506 19.483C16.5506 18.8048 16.2951 18.2063 15.7944 17.7995C15.3254 17.4184 14.7495 17.293 14.2416 17.293V19.293C14.4476 19.293 14.5263 19.3461 14.5332 19.3517C14.5345 19.3528 14.5337 19.3523 14.5322 19.3504C14.5307 19.3485 14.5311 19.3483 14.5326 19.3518C14.5351 19.3574 14.5506 19.3946 14.5506 19.483H16.5506ZM14.2416 17.293C12.9637 17.293 12.1223 17.9964 11.5224 18.5781L12.9147 20.0139C13.4368 19.5076 13.7854 19.293 14.2416 19.293V17.293ZM13.0477 18.737L12.0277 17.224L10.3694 18.342L11.3894 19.855L13.0477 18.737ZM11.8856 18.5096C12.6517 17.7853 13.5334 17.389 14.6496 17.389V15.389C12.9778 15.389 11.6154 16.0127 10.5115 17.0564L11.8856 18.5096ZM14.6496 17.389C15.2722 17.389 15.7784 17.5652 16.112 17.8503C16.4217 18.1151 16.6756 18.5511 16.6756 19.296H18.6756C18.6756 18.0349 18.2154 17.0174 17.4116 16.3302C16.6317 15.6633 15.6249 15.389 14.6496 15.389V17.389ZM16.6756 19.296C16.6756 20.4946 16.1067 20.9636 14.6055 22.4649L16.0197 23.8791C17.3064 22.5924 18.6756 21.4974 18.6756 19.296H16.6756ZM20.9093 20.741L19.9134 20.6498L19.8135 21.741H20.9093V20.741ZM18.3933 25.314L18.1409 24.3464L17.2961 24.5668L17.4004 25.4335L18.3933 25.314ZM20.3483 24.804L21.3469 24.7523L21.2835 23.5266L20.0959 23.8364L20.3483 24.804ZM18.7333 22.509L17.7378 22.4142L17.6335 23.509H18.7333V22.509ZM19.3113 16.44V15.44H18.402L18.3158 16.3452L19.3113 16.44ZM24.2753 16.44H25.2753V15.44H24.2753V16.44ZM24.2753 18.327V19.327H25.2753V18.327H24.2753ZM21.1303 18.327V17.327H20.2176L20.1344 18.2358L21.1303 18.327ZM20.9093 21.741H22.0993V19.741H20.9093V21.741ZM22.0993 21.741C22.6599 21.741 23.0798 21.9366 23.3613 22.2291C23.645 22.524 23.8533 22.9863 23.8533 23.631H25.8533C25.8533 22.5417 25.492 21.559 24.8025 20.8424C24.1107 20.1234 23.1537 19.741 22.0993 19.741V21.741ZM23.8533 23.631V25.314H25.8533V23.631H23.8533ZM23.8533 25.314C23.8533 26.4155 22.9218 27.17 21.6743 27.17V29.17C23.6227 29.17 25.8533 27.8845 25.8533 25.314H23.8533ZM21.6743 27.17C20.8068 27.17 20.3122 26.9568 20.0162 26.689C19.7171 26.4184 19.4787 25.9636 19.3861 25.1945L17.4004 25.4335C17.5289 26.5004 17.9024 27.4736 18.6744 28.172C19.4494 28.8732 20.4848 29.17 21.6743 29.17V27.17ZM18.6457 26.2816L20.6007 25.7716L20.0959 23.8364L18.1409 24.3464L18.6457 26.2816ZM19.3496 24.8557C19.3801 25.4443 19.5164 26.0734 19.9233 26.5666C20.3671 27.1046 20.9927 27.317 21.6403 27.317V25.317C21.5297 25.317 21.4804 25.2998 21.4686 25.2949C21.4627 25.2925 21.4665 25.2945 21.466 25.2939C21.4522 25.2771 21.3675 25.1497 21.3469 24.7523L19.3496 24.8557ZM21.6403 27.317C22.1565 27.317 22.6785 27.1509 23.0836 26.7854C23.4997 26.41 23.7283 25.8803 23.7283 25.297H21.7283C21.7283 25.3265 21.7231 25.3327 21.7267 25.3243C21.7304 25.3158 21.7371 25.3065 21.7439 25.3004C21.7581 25.2876 21.7361 25.317 21.6403 25.317V27.317ZM23.7283 25.297V23.563H21.7283V25.297H23.7283ZM23.7283 23.563C23.7283 22.9606 23.505 22.4072 23.0551 22.0182C22.6254 21.6466 22.0871 21.509 21.5893 21.509V23.509C21.7375 23.509 21.7687 23.5499 21.747 23.5311C21.7351 23.5208 21.7258 23.507 21.7219 23.498C21.7188 23.4906 21.7283 23.5075 21.7283 23.563H23.7283ZM21.5893 21.509H18.7333V23.509H21.5893V21.509ZM19.7288 22.6038L20.3068 16.5348L18.3158 16.3452L17.7378 22.4142L19.7288 22.6038ZM19.3113 17.44H24.2753V15.44H19.3113V17.44ZM23.2753 16.44V18.327H25.2753V16.44H23.2753ZM24.2753 17.327H21.1303V19.327H24.2753V17.327ZM20.1344 18.2358L19.9134 20.6498L21.9051 20.8322L22.1261 18.4182L20.1344 18.2358ZM29.1156 17.27C29.9159 17.27 30.5494 17.5237 30.9725 17.9143C31.3862 18.2962 31.6686 18.8718 31.6686 19.67H33.6686C33.6686 18.3602 33.186 17.2358 32.329 16.4447C31.4814 15.6623 30.3383 15.27 29.1156 15.27V17.27ZM31.6686 19.67V24.838H33.6686V19.67H31.6686ZM31.6686 24.838C31.6686 25.6408 31.3854 26.1927 30.9796 26.5539C30.5593 26.9279 29.9234 27.17 29.1156 27.17V29.17C30.3139 29.17 31.4545 28.8086 32.3092 28.0479C33.1784 27.2743 33.6686 26.1602 33.6686 24.838H31.6686ZM29.1156 27.17C28.2917 27.17 27.6696 26.9244 27.2648 26.5555C26.8717 26.1971 26.5966 25.6446 26.5966 24.838H24.5966C24.5966 26.1394 25.061 27.2529 25.9175 28.0335C26.7622 28.8036 27.8995 29.17 29.1156 29.17V27.17ZM26.5966 24.838V19.67H24.5966V24.838H26.5966ZM26.5966 19.67C26.5966 18.8613 26.8736 18.2859 27.2756 17.9086C27.6852 17.524 28.306 17.27 29.1156 17.27V15.27C27.8853 15.27 26.7466 15.662 25.9067 16.4504C25.0591 17.2461 24.5966 18.3707 24.5966 19.67H26.5966ZM31.5436 24.838V19.67H29.5436V24.838H31.5436ZM31.5436 19.67C31.5436 19.0573 31.4149 18.3876 30.946 17.8714C30.4595 17.3358 29.7845 17.157 29.1156 17.157V19.157C29.2821 19.157 29.3775 19.1793 29.4246 19.1961C29.4471 19.2042 29.4581 19.2108 29.4617 19.2132C29.465 19.2154 29.4655 19.2161 29.4655 19.2161C29.4657 19.2163 29.4695 19.2204 29.4757 19.2319C29.4822 19.2439 29.4921 19.2657 29.5025 19.3007C29.524 19.3736 29.5436 19.4916 29.5436 19.67H31.5436ZM29.1156 17.157C28.4818 17.157 27.8466 17.3581 27.3724 17.8487C26.9011 18.3362 26.7046 18.9896 26.7046 19.67H28.7046C28.7046 19.3644 28.7886 19.2613 28.8104 19.2388C28.8291 19.2194 28.8994 19.157 29.1156 19.157V17.157ZM26.7046 19.67V24.838H28.7046V19.67H26.7046ZM26.7046 24.838C26.7046 25.523 26.9132 26.1705 27.3906 26.648C27.8662 27.1235 28.4953 27.317 29.1156 27.317V25.317C28.9029 25.317 28.8266 25.2555 28.8049 25.2338C28.785 25.214 28.7046 25.122 28.7046 24.838H26.7046ZM29.1156 27.317C29.7305 27.317 30.3657 27.1359 30.8494 26.6604C31.3372 26.1809 31.5436 25.5274 31.5436 24.838H29.5436C29.5436 25.1346 29.4611 25.2206 29.4473 25.2341C29.4296 25.2516 29.3508 25.317 29.1156 25.317V27.317Z"
    fill="#EAE9E1"
    mask="url(#path-13-outside-1_31_1165)"
  />
  <defs>
    <filter
      id="filter0_bddddi_31_1165"
      x="-3.4375"
      y="-3.4375"
      width="51.0125"
      height="51.0125"
      filterUnits="userSpaceOnUse"
      color-interpolation-filters="sRGB"
    >
      <feFlood flood-opacity="0" result="BackgroundImageFix" />
      <feGaussianBlur in="BackgroundImageFix" stdDeviation="2.40625" />
      <feComposite in2="SourceAlpha" operator="in" result="effect1_backgroundBlur_31_1165" />
      <feColorMatrix
        in="SourceAlpha"
        type="matrix"
        values="0 0 0 0 0 0 0 0 0 0 0 0 0 0 0 0 0 0 127 0"
        result="hardAlpha"
      />
      <feOffset />
      <feGaussianBlur stdDeviation="0.495" />
      <feColorMatrix type="matrix" values="0 0 0 0 0 0 0 0 0 0 0 0 0 0 0 0 0 0 0.25 0" />
      <feBlend mode="normal" in2="effect1_backgroundBlur_31_1165" result="effect2_dropShadow_31_1165" />
      <feColorMatrix
        in="SourceAlpha"
        type="matrix"
        values="0 0 0 0 0 0 0 0 0 0 0 0 0 0 0 0 0 0 127 0"
        result="hardAlpha"
      />
      <feOffset dx="0.99" dy="0.99" />
      <feGaussianBlur stdDeviation="0.495" />
      <feColorMatrix type="matrix" values="0 0 0 0 0 0 0 0 0 0 0 0 0 0 0 0 0 0 0.22 0" />
      <feBlend mode="normal" in2="effect2_dropShadow_31_1165" result="effect3_dropShadow_31_1165" />
      <feColorMatrix
        in="SourceAlpha"
        type="matrix"
        values="0 0 0 0 0 0 0 0 0 0 0 0 0 0 0 0 0 0 127 0"
        result="hardAlpha"
      />
      <feOffset dx="1.98" dy="1.98" />
      <feGaussianBlur stdDeviation="0.495" />
      <feColorMatrix type="matrix" values="0 0 0 0 0 0 0 0 0 0 0 0 0 0 0 0 0 0 0.13 0" />
      <feBlend mode="normal" in2="effect3_dropShadow_31_1165" result="effect4_dropShadow_31_1165" />
      <feColorMatrix
        in="SourceAlpha"
        type="matrix"
        values="0 0 0 0 0 0 0 0 0 0 0 0 0 0 0 0 0 0 127 0"
        result="hardAlpha"
      />
      <feOffset dx="2.97" dy="2.97" />
      <feGaussianBlur stdDeviation="0.99" />
      <feColorMatrix type="matrix" values="0 0 0 0 0 0 0 0 0 0 0 0 0 0 0 0 0 0 0.04 0" />
      <feBlend mode="normal" in2="effect4_dropShadow_31_1165" result="effect5_dropShadow_31_1165" />
      <feBlend mode="normal" in="SourceGraphic" in2="effect5_dropShadow_31_1165" result="shape" />
      <feColorMatrix
        in="SourceAlpha"
        type="matrix"
        values="0 0 0 0 0 0 0 0 0 0 0 0 0 0 0 0 0 0 127 0"
        result="hardAlpha"
      />
      <feMorphology radius="0.34375" operator="erode" in="SourceAlpha" result="effect6_innerShadow_31_1165" />
      <feOffset />
      <feGaussianBlur stdDeviation="0.34375" />
      <feComposite in2="hardAlpha" operator="arithmetic" k2="-1" k3="1" />
      <feColorMatrix type="matrix" values="0 0 0 0 1 0 0 0 0 1 0 0 0 0 1 0 0 0 0.25 0" />
      <feBlend mode="normal" in2="shape" result="effect6_innerShadow_31_1165" />
    </filter>
    <filter
      id="filter1_i_31_1165"
      x="1.375"
      y="1.375"
      width="41.25"
      height="41.25"
      filterUnits="userSpaceOnUse"
      color-interpolation-filters="sRGB"
    >
      <feFlood flood-opacity="0" result="BackgroundImageFix" />
      <feBlend mode="normal" in="SourceGraphic" in2="BackgroundImageFix" result="shape" />
      <feColorMatrix
        in="SourceAlpha"
        type="matrix"
        values="0 0 0 0 0 0 0 0 0 0 0 0 0 0 0 0 0 0 127 0"
        result="hardAlpha"
      />
      <feMorphology radius="0.34375" operator="erode" in="SourceAlpha" result="effect1_innerShadow_31_1165" />
      <feOffset />
      <feGaussianBlur stdDeviation="0.34375" />
      <feComposite in2="hardAlpha" operator="arithmetic" k2="-1" k3="1" />
      <feColorMatrix type="matrix" values="0 0 0 0 1 0 0 0 0 1 0 0 0 0 1 0 0 0 0.25 0" />
      <feBlend mode="normal" in2="shape" result="effect1_innerShadow_31_1165" />
    </filter>
    <filter
      id="filter2_di_31_1165"
      x="8.10845"
      y="8.4522"
      width="27.7833"
      height="27.7833"
      filterUnits="userSpaceOnUse"
      color-interpolation-filters="sRGB"
    >
      <feFlood flood-opacity="0" result="BackgroundImageFix" />
      <feColorMatrix
        in="SourceAlpha"
        type="matrix"
        values="0 0 0 0 0 0 0 0 0 0 0 0 0 0 0 0 0 0 127 0"
        result="hardAlpha"
      />
      <feOffset dy="0.34375" />
      <feGaussianBlur stdDeviation="0.189063" />
      <feComposite in2="hardAlpha" operator="out" />
      <feColorMatrix type="matrix" values="0 0 0 0 0 0 0 0 0 0 0 0 0 0 0 0 0 0 0.51 0" />
      <feBlend mode="normal" in2="BackgroundImageFix" result="effect1_dropShadow_31_1165" />
      <feBlend mode="normal" in="SourceGraphic" in2="effect1_dropShadow_31_1165" result="shape" />
      <feColorMatrix
        in="SourceAlpha"
        type="matrix"
        values="0 0 0 0 0 0 0 0 0 0 0 0 0 0 0 0 0 0 127 0"
        result="hardAlpha"
      />
      <feOffset dy="0.34375" />
      <feGaussianBlur stdDeviation="0.34375" />
      <feComposite in2="hardAlpha" operator="arithmetic" k2="-1" k3="1" />
      <feColorMatrix type="matrix" values="0 0 0 0 1 0 0 0 0 1 0 0 0 0 1 0 0 0 0.5 0" />
      <feBlend mode="normal" in2="shape" result="effect2_innerShadow_31_1165" />
    </filter>
    <linearGradient id="paint0_linear_31_1165" x1="22" y1="1.375" x2="22" y2="42.625" gradientUnits="userSpaceOnUse">
      <stop stop-color="white" />
      <stop offset="1" />
    </linearGradient>
    <linearGradient
      id="paint1_linear_31_1165"
      x1="28.5553"
      y1="2.23586"
      x2="20.4913"
      y2="42.9678"
      gradientUnits="userSpaceOnUse"
    >
      <stop stop-color="#D5BC80" />
      <stop offset="1" stop-color="#AE8943" />
    </linearGradient>
    <linearGradient
      id="paint2_linear_31_1165"
      x1="28.5553"
      y1="2.23586"
      x2="20.4913"
      y2="42.9678"
      gradientUnits="userSpaceOnUse"
    >
      <stop stop-color="#D5BC80" />
      <stop offset="1" stop-color="#AE8943" />
    </linearGradient>
    <linearGradient
      id="paint3_linear_31_1165"
      x1="28.5553"
      y1="2.23586"
      x2="20.4913"
      y2="42.9678"
      gradientUnits="userSpaceOnUse"
    >
      <stop stop-color="#D5BC80" />
      <stop offset="1" stop-color="#AE8943" />
    </linearGradient>
    <linearGradient
      id="paint4_linear_31_1165"
      x1="28.5553"
      y1="2.23586"
      x2="20.4913"
      y2="42.9678"
      gradientUnits="userSpaceOnUse"
    >
      <stop stop-color="#D5BC80" />
      <stop offset="1" stop-color="#AE8943" />
    </linearGradient>
    <radialGradient
      id="paint5_angular_31_1165"
      cx="0"
      cy="0"
      r="1"
      gradientUnits="userSpaceOnUse"
      gradientTransform="translate(22.0001 22) rotate(90) scale(20.68)"
    >
      <stop offset="0.227265" stop-color="white" stop-opacity="0" />
      <stop offset="0.365" stop-color="white" />
      <stop offset="0.537834" stop-color="white" stop-opacity="0" />
      <stop offset="0.784159" stop-color="white" stop-opacity="0" />
      <stop offset="0.872176" stop-color="white" stop-opacity="0.47" />
      <stop offset="0.964463" stop-color="white" stop-opacity="0" />
    </radialGradient>
    <linearGradient id="paint6_linear_31_1165" x1="22" y1="19.4286" x2="22" y2="23.7143" gradientUnits="userSpaceOnUse">
      <stop stop-color="#3D3F40" />
      <stop offset="1" stop-color="#0D0D0D" />
    </linearGradient>
  </defs>
</svg>
