<svg viewBox="0 0 48 48" fill="none" xmlns="http://www.w3.org/2000/svg">
  <g filter="url(#filter0_bddddi_31_711)">
    <circle cx="22" cy="22" r="20.625" fill="#A1A1A1" />
  </g>
  <mask id="mask0_31_711" style="mask-type: alpha" maskUnits="userSpaceOnUse" x="1" y="1" width="42" height="42">
    <circle cx="22" cy="22" r="18.3906" stroke="black" stroke-width="4.46875" stroke-linecap="round" />
  </mask>
  <g mask="url(#mask0_31_711)">
    <rect
      width="10.6563"
      height="52.5938"
      transform="matrix(-0.5 0.866025 0.866025 0.5 2.06213 4.06537)"
      fill="#3F355B"
    />
    <path d="M2.16321 10.0777L42.0545 33.1089" stroke="#398E24" stroke-width="5.5" />
    <path d="M2.16333 10.0777L42.0546 33.1089" stroke="#FBE30B" stroke-width="1.375" />
    <rect
      x="42.2817"
      y="4.06537"
      width="10.6563"
      height="52.5938"
      transform="rotate(60 42.2817 4.06537)"
      fill="#3F355B"
    />
    <path d="M42.1805 10.0777L2.28925 33.1089" stroke="#398E24" stroke-width="5.5" />
    <path d="M42.1805 10.0777L2.28925 33.1089" stroke="#FBE30B" stroke-width="1.375" />
    <rect x="16.8438" y="-4.46878" width="10.6563" height="52.5938" fill="#3F355B" />
    <path d="M22 -1.37503L22 44.6875" stroke="#398E24" stroke-width="5.5" />
    <path d="M22 -1.37503L22 44.6875" stroke="#FBE30B" stroke-width="1.375" />
  </g>
  <circle cx="22" cy="22" r="14.4375" fill="#E7E6DE" stroke="#3F355B" stroke-width="1.375" stroke-linecap="round" />
  <path
    d="M4.35663 22.6471C4.82443 22.6531 5.20834 22.2696 5.21413 21.7907C5.21991 21.3119 4.84538 20.9188 4.37758 20.9129C3.90978 20.907 3.52587 21.2904 3.52009 21.7693C3.5143 22.2482 3.88883 22.6412 4.35663 22.6471Z"
    fill="#372E4F"
  />
  <path
    d="M39.6225 22.6471C40.0903 22.6531 40.4742 22.2696 40.48 21.7907C40.4857 21.3119 40.1112 20.9188 39.6434 20.9129C39.1756 20.907 38.7917 21.2904 38.7859 21.7693C38.7801 22.2482 39.1547 22.6412 39.6225 22.6471Z"
    fill="#372E4F"
  />
  <path
    d="M13.9121 37.8555C14.151 37.4438 14.0186 36.9117 13.6163 36.6671C13.2141 36.4225 12.6944 36.5581 12.4555 36.9699C12.2166 37.3816 12.349 37.9137 12.7512 38.1583C13.1534 38.4028 13.6732 38.2673 13.9121 37.8555Z"
    fill="#372E4F"
  />
  <path
    d="M31.545 6.5902C31.7839 6.17843 31.6515 5.64636 31.2493 5.40178C30.847 5.15721 30.3273 5.29275 30.0884 5.70452C29.8495 6.11629 29.9819 6.64836 30.3841 6.89293C30.7863 7.1375 31.3061 7.00197 31.545 6.5902Z"
    fill="#372E4F"
  />
  <path
    d="M30.0883 37.8555C29.8494 37.4437 29.9818 36.9116 30.384 36.6671C30.7862 36.4225 31.306 36.558 31.5449 36.9698C31.7838 37.3816 31.6514 37.9136 31.2492 38.1582C30.8469 38.4028 30.3272 38.2673 30.0883 37.8555Z"
    fill="#372E4F"
  />
  <path
    d="M12.4554 6.59015C12.2165 6.17838 12.3489 5.64631 12.7511 5.40173C13.1533 5.15716 13.6731 5.2927 13.912 5.70447C14.1509 6.11624 14.0185 6.64831 13.6163 6.89288C13.214 7.13745 12.6943 7.00192 12.4554 6.59015Z"
    fill="#372E4F"
  />
  <g style="mix-blend-mode: overlay" filter="url(#filter1_i_31_711)">
    <circle cx="22" cy="22" r="20.625" fill="url(#paint0_linear_31_711)" fill-opacity="0.25" />
  </g>
  <circle
    cx="21.9999"
    cy="22"
    r="20.3362"
    stroke="url(#paint1_angular_31_711)"
    stroke-width="0.6875"
    stroke-linecap="round"
  />
  <mask id="path-16-outside-1_31_711" maskUnits="userSpaceOnUse" x="11" y="14" width="23" height="16" fill="black">
    <rect fill="white" x="11" y="14" width="23" height="16" />
    <path
      d="M19.9809 15.4V24.04H21.6409V26.26H19.9809V29H17.4809V26.26H12.8609V24.08L17.0809 15.4H19.9809ZM17.4809 24.04V19.3H17.2609L15.1809 24.04H17.4809ZM28.3442 15.4H31.1442L27.7042 21.76L31.5442 29H28.6842L26.0242 23.54L25.2642 24.62V29H22.7842V15.4H25.2642V21.56L28.3442 15.4Z"
    />
  </mask>
  <!-- <path
    d="M19.9809 15.4V24.04H21.6409V26.26H19.9809V29H17.4809V26.26H12.8609V24.08L17.0809 15.4H19.9809ZM17.4809 24.04V19.3H17.2609L15.1809 24.04H17.4809ZM28.3442 15.4H31.1442L27.7042 21.76L31.5442 29H28.6842L26.0242 23.54L25.2642 24.62V29H22.7842V15.4H25.2642V21.56L28.3442 15.4Z"
    fill="url(#paint2_linear_31_711)"
  /> -->
  <path
    d="M19.9809 15.4H20.9756V14.4053H19.9809V15.4ZM19.9809 24.04H18.9863V25.0347H19.9809V24.04ZM21.6409 24.04H22.6356V23.0453H21.6409V24.04ZM21.6409 26.26V27.2547H22.6356V26.26H21.6409ZM19.9809 26.26V25.2653H18.9863V26.26H19.9809ZM19.9809 29V29.9947H20.9756V29H19.9809ZM17.4809 29H16.4863V29.9947H17.4809V29ZM17.4809 26.26H18.4756V25.2653H17.4809V26.26ZM12.8609 26.26H11.8663V27.2547H12.8609V26.26ZM12.8609 24.08L11.9664 23.6451L11.8663 23.851V24.08H12.8609ZM17.0809 15.4V14.4053H16.4585L16.1864 14.9651L17.0809 15.4ZM17.4809 24.04V25.0347H18.4756V24.04H17.4809ZM17.4809 19.3H18.4756V18.3053H17.4809V19.3ZM17.2609 19.3V18.3053H16.6112L16.3501 18.9003L17.2609 19.3ZM15.1809 24.04L14.2701 23.6403L13.6582 25.0347H15.1809V24.04ZM18.9863 15.4V24.04H20.9756V15.4H18.9863ZM19.9809 25.0347H21.6409V23.0453H19.9809V25.0347ZM20.6463 24.04V26.26H22.6356V24.04H20.6463ZM21.6409 25.2653H19.9809V27.2547H21.6409V25.2653ZM18.9863 26.26V29H20.9756V26.26H18.9863ZM19.9809 28.0053H17.4809V29.9947H19.9809V28.0053ZM18.4756 29V26.26H16.4863V29H18.4756ZM17.4809 25.2653H12.8609V27.2547H17.4809V25.2653ZM13.8556 26.26V24.08H11.8663V26.26H13.8556ZM13.7555 24.5149L17.9755 15.8349L16.1864 14.9651L11.9664 23.6451L13.7555 24.5149ZM17.0809 16.3947H19.9809V14.4053H17.0809V16.3947ZM18.4756 24.04V19.3H16.4863V24.04H18.4756ZM17.4809 18.3053H17.2609V20.2947H17.4809V18.3053ZM16.3501 18.9003L14.2701 23.6403L16.0918 24.4397L18.1718 19.6997L16.3501 18.9003ZM15.1809 25.0347H17.4809V23.0453H15.1809V25.0347ZM28.3442 15.4V14.4053H27.7295L27.4546 14.9552L28.3442 15.4ZM31.1442 15.4L32.0191 15.8732L32.8131 14.4053H31.1442V15.4ZM27.7042 21.76L26.8293 21.2868L26.5759 21.7554L26.8255 22.2261L27.7042 21.76ZM31.5442 29V29.9947H33.1977L32.4229 28.5339L31.5442 29ZM28.6842 29L27.79 29.4356L28.0624 29.9947H28.6842V29ZM26.0242 23.54L26.9184 23.1044L26.1805 21.5896L25.2108 22.9676L26.0242 23.54ZM25.2642 24.62L24.4508 24.0476L24.2696 24.3051V24.62H25.2642ZM25.2642 29V29.9947H26.2589V29H25.2642ZM22.7842 29H21.7896V29.9947H22.7842V29ZM22.7842 15.4V14.4053H21.7896V15.4H22.7842ZM25.2642 15.4H26.2589V14.4053H25.2642V15.4ZM25.2642 21.56H24.2696L26.1539 22.0048L25.2642 21.56ZM28.3442 16.3947H31.1442V14.4053H28.3442V16.3947ZM30.2693 14.9268L26.8293 21.2868L28.5791 22.2332L32.0191 15.8732L30.2693 14.9268ZM26.8255 22.2261L30.6655 29.4661L32.4229 28.5339L28.5829 21.2939L26.8255 22.2261ZM31.5442 28.0053H28.6842V29.9947H31.5442V28.0053ZM29.5784 28.5644L26.9184 23.1044L25.13 23.9756L27.79 29.4356L29.5784 28.5644ZM25.2108 22.9676L24.4508 24.0476L26.0777 25.1924L26.8377 24.1124L25.2108 22.9676ZM24.2696 24.62V29H26.2589V24.62H24.2696ZM25.2642 28.0053H22.7842V29.9947H25.2642V28.0053ZM23.7789 29V15.4H21.7896V29H23.7789ZM22.7842 16.3947H25.2642V14.4053H22.7842V16.3947ZM24.2696 15.4V21.56H26.2589V15.4H24.2696ZM26.1539 22.0048L29.2339 15.8448L27.4546 14.9552L24.3746 21.1152L26.1539 22.0048Z"
    fill="#EAE9E1"
    mask="url(#path-16-outside-1_31_711)"
  />
  <defs>
    <filter
      id="filter0_bddddi_31_711"
      x="-3.4375"
      y="-3.4375"
      width="51.0125"
      height="51.0125"
      filterUnits="userSpaceOnUse"
      color-interpolation-filters="sRGB"
    >
      <feFlood flood-opacity="0" result="BackgroundImageFix" />
      <feGaussianBlur in="BackgroundImageFix" stdDeviation="2.40625" />
      <feComposite in2="SourceAlpha" operator="in" result="effect1_backgroundBlur_31_711" />
      <feColorMatrix
        in="SourceAlpha"
        type="matrix"
        values="0 0 0 0 0 0 0 0 0 0 0 0 0 0 0 0 0 0 127 0"
        result="hardAlpha"
      />
      <feOffset />
      <feGaussianBlur stdDeviation="0.495" />
      <feColorMatrix type="matrix" values="0 0 0 0 0 0 0 0 0 0 0 0 0 0 0 0 0 0 0.25 0" />
      <feBlend mode="normal" in2="effect1_backgroundBlur_31_711" result="effect2_dropShadow_31_711" />
      <feColorMatrix
        in="SourceAlpha"
        type="matrix"
        values="0 0 0 0 0 0 0 0 0 0 0 0 0 0 0 0 0 0 127 0"
        result="hardAlpha"
      />
      <feOffset dx="0.99" dy="0.99" />
      <feGaussianBlur stdDeviation="0.495" />
      <feColorMatrix type="matrix" values="0 0 0 0 0 0 0 0 0 0 0 0 0 0 0 0 0 0 0.22 0" />
      <feBlend mode="normal" in2="effect2_dropShadow_31_711" result="effect3_dropShadow_31_711" />
      <feColorMatrix
        in="SourceAlpha"
        type="matrix"
        values="0 0 0 0 0 0 0 0 0 0 0 0 0 0 0 0 0 0 127 0"
        result="hardAlpha"
      />
      <feOffset dx="1.98" dy="1.98" />
      <feGaussianBlur stdDeviation="0.495" />
      <feColorMatrix type="matrix" values="0 0 0 0 0 0 0 0 0 0 0 0 0 0 0 0 0 0 0.13 0" />
      <feBlend mode="normal" in2="effect3_dropShadow_31_711" result="effect4_dropShadow_31_711" />
      <feColorMatrix
        in="SourceAlpha"
        type="matrix"
        values="0 0 0 0 0 0 0 0 0 0 0 0 0 0 0 0 0 0 127 0"
        result="hardAlpha"
      />
      <feOffset dx="2.97" dy="2.97" />
      <feGaussianBlur stdDeviation="0.99" />
      <feColorMatrix type="matrix" values="0 0 0 0 0 0 0 0 0 0 0 0 0 0 0 0 0 0 0.04 0" />
      <feBlend mode="normal" in2="effect4_dropShadow_31_711" result="effect5_dropShadow_31_711" />
      <feBlend mode="normal" in="SourceGraphic" in2="effect5_dropShadow_31_711" result="shape" />
      <feColorMatrix
        in="SourceAlpha"
        type="matrix"
        values="0 0 0 0 0 0 0 0 0 0 0 0 0 0 0 0 0 0 127 0"
        result="hardAlpha"
      />
      <feMorphology radius="0.34375" operator="erode" in="SourceAlpha" result="effect6_innerShadow_31_711" />
      <feOffset />
      <feGaussianBlur stdDeviation="0.34375" />
      <feComposite in2="hardAlpha" operator="arithmetic" k2="-1" k3="1" />
      <feColorMatrix type="matrix" values="0 0 0 0 1 0 0 0 0 1 0 0 0 0 1 0 0 0 0.25 0" />
      <feBlend mode="normal" in2="shape" result="effect6_innerShadow_31_711" />
    </filter>
    <filter
      id="filter1_i_31_711"
      x="1.375"
      y="1.375"
      width="41.25"
      height="41.25"
      filterUnits="userSpaceOnUse"
      color-interpolation-filters="sRGB"
    >
      <feFlood flood-opacity="0" result="BackgroundImageFix" />
      <feBlend mode="normal" in="SourceGraphic" in2="BackgroundImageFix" result="shape" />
      <feColorMatrix
        in="SourceAlpha"
        type="matrix"
        values="0 0 0 0 0 0 0 0 0 0 0 0 0 0 0 0 0 0 127 0"
        result="hardAlpha"
      />
      <feMorphology radius="0.34375" operator="erode" in="SourceAlpha" result="effect1_innerShadow_31_711" />
      <feOffset />
      <feGaussianBlur stdDeviation="0.34375" />
      <feComposite in2="hardAlpha" operator="arithmetic" k2="-1" k3="1" />
      <feColorMatrix type="matrix" values="0 0 0 0 1 0 0 0 0 1 0 0 0 0 1 0 0 0 0.25 0" />
      <feBlend mode="normal" in2="shape" result="effect1_innerShadow_31_711" />
    </filter>
    <linearGradient id="paint0_linear_31_711" x1="22" y1="1.375" x2="22" y2="42.625" gradientUnits="userSpaceOnUse">
      <stop stop-color="white" />
      <stop offset="1" />
    </linearGradient>
    <radialGradient
      id="paint1_angular_31_711"
      cx="0"
      cy="0"
      r="1"
      gradientUnits="userSpaceOnUse"
      gradientTransform="translate(21.9999 22) rotate(90) scale(20.68)"
    >
      <stop offset="0.227265" stop-color="white" stop-opacity="0" />
      <stop offset="0.365" stop-color="white" />
      <stop offset="0.537834" stop-color="white" stop-opacity="0" />
      <stop offset="0.784159" stop-color="white" stop-opacity="0" />
      <stop offset="0.872176" stop-color="white" stop-opacity="0.47" />
      <stop offset="0.964463" stop-color="white" stop-opacity="0" />
    </radialGradient>
    <linearGradient id="paint2_linear_31_711" x1="22" y1="19" x2="22" y2="24" gradientUnits="userSpaceOnUse">
      <stop stop-color="#3D3F40" />
      <stop offset="1" stop-color="#0D0D0D" />
    </linearGradient>
  </defs>
</svg>
