<svg width="32" height="32" viewBox="0 0 32 32" fill="none" xmlns="http://www.w3.org/2000/svg">
<path d="M0 16C0 7.16344 7.16344 0 16 0C24.8366 0 32 7.16344 32 16C32 24.8366 24.8366 32 16 32C7.16344 32 0 24.8366 0 16Z" fill="url(#paint0_linear_1908_10243)"/>
<path fill-rule="evenodd" clip-rule="evenodd" d="M10.6668 21.3319H16.0002C18.9457 21.3319 21.3335 18.9443 21.3335 15.999C21.3335 13.0538 18.9457 10.6662 16.0002 10.6662C13.0546 10.6662 10.6668 13.0538 10.6668 15.999V21.3319ZM16.0002 9.33301C12.3183 9.33301 9.3335 12.3175 9.3335 15.999V22.6651H16.0002C19.6821 22.6651 22.6668 19.6806 22.6668 15.999C22.6668 12.3175 19.6821 9.33301 16.0002 9.33301Z" fill="url(#paint1_linear_1908_10243)"/>
<ellipse cx="13.1668" cy="16.1658" rx="0.833333" ry="0.833253" fill="url(#paint2_linear_1908_10243)"/>
<ellipse cx="15.8333" cy="16.1658" rx="0.833333" ry="0.833253" fill="url(#paint3_linear_1908_10243)"/>
<ellipse cx="18.5003" cy="16.1658" rx="0.833333" ry="0.833253" fill="url(#paint4_linear_1908_10243)"/>
<defs>
<linearGradient id="paint0_linear_1908_10243" x1="16" y1="0" x2="16" y2="32" gradientUnits="userSpaceOnUse">
<stop stop-color="#0C0C0C" stop-opacity="0.05"/>
<stop offset="1" stop-color="#0C0C0C" stop-opacity="0.5"/>
</linearGradient>
<linearGradient id="paint1_linear_1908_10243" x1="16.0002" y1="13.9159" x2="16.0002" y2="20.1653" gradientUnits="userSpaceOnUse">
<stop stop-color="#C9AE8D"/>
<stop offset="1" stop-color="#795C39"/>
</linearGradient>
<linearGradient id="paint2_linear_1908_10243" x1="13.1668" y1="15.9054" x2="13.1668" y2="16.6866" gradientUnits="userSpaceOnUse">
<stop stop-color="#C9AE8D"/>
<stop offset="1" stop-color="#795C39"/>
</linearGradient>
<linearGradient id="paint3_linear_1908_10243" x1="15.8333" y1="15.9054" x2="15.8333" y2="16.6866" gradientUnits="userSpaceOnUse">
<stop stop-color="#C9AE8D"/>
<stop offset="1" stop-color="#795C39"/>
</linearGradient>
<linearGradient id="paint4_linear_1908_10243" x1="18.5003" y1="15.9054" x2="18.5003" y2="16.6866" gradientUnits="userSpaceOnUse">
<stop stop-color="#C9AE8D"/>
<stop offset="1" stop-color="#795C39"/>
</linearGradient>
</defs>
</svg>
