<svg xmlns="http://www.w3.org/2000/svg" width="48" height="48" viewBox="0 0 48 48" fill="none">
  <g clip-path="url(#clip0_935_75739)">
    <g filter="url(#filter0_ddddi_935_75739)">
      <path fill-rule="evenodd" clip-rule="evenodd" d="M25.4014 5.50781C26.4779 4.5372 27.8759 4 29.3253 4C30.7748 4 32.1728 4.5372 33.2493 5.50781C33.2685 5.5251 33.2873 5.54282 33.3057 5.56094L42.4188 14.5282C42.444 14.5531 42.4685 14.5786 42.4922 14.6049C43.4628 15.6814 44 17.0794 44 18.5288C44 19.9783 43.4628 21.3763 42.4922 22.4528C42.4717 22.4755 42.4506 22.4977 42.429 22.5193L36.0498 28.8985C35.3558 29.5925 34.2306 29.5925 33.5367 28.8985C32.8427 28.2045 32.8427 27.0794 33.5367 26.3854L39.8788 20.0433C40.2442 19.6238 40.4459 19.086 40.4459 18.5288C40.4459 17.9737 40.2456 17.4378 39.8828 17.019L30.8444 8.1253C30.4243 7.75734 29.8846 7.55412 29.3253 7.55412C28.7682 7.55412 28.2304 7.75585 27.8109 8.12124L21.6146 14.3175C20.9206 15.0115 19.7955 15.0115 19.1015 14.3175C18.4075 13.6236 18.4075 12.4984 19.1015 11.8044L25.3348 5.57103C25.3565 5.54939 25.3787 5.5283 25.4014 5.50781ZM27.6941 13.0613C27.6941 12.0799 28.4897 11.2843 29.4712 11.2843H29.4894C30.4708 11.2843 31.2664 12.0799 31.2664 13.0613C31.2664 14.0428 30.4708 14.8384 29.4894 14.8384H29.4712C28.4897 14.8384 27.6941 14.0428 27.6941 13.0613ZM33.162 18.5292C33.162 17.5477 33.9576 16.7521 34.939 16.7521H34.9573C35.9387 16.7521 36.7343 17.5477 36.7343 18.5292C36.7343 19.5106 35.9387 20.3062 34.9573 20.3062H34.939C33.9576 20.3062 33.162 19.5106 33.162 18.5292ZM9.4223 22.1285C8.39053 22.1285 7.55412 22.9649 7.55412 23.9967V38.5777C7.55412 39.6095 8.39053 40.4459 9.4223 40.4459H24.0033C25.0351 40.4459 25.8715 39.6095 25.8715 38.5777V23.9967C25.8715 22.9649 25.0351 22.1285 24.0033 22.1285H9.4223ZM4 23.9967C4 21.0021 6.42765 18.5744 9.4223 18.5744H24.0033C26.9979 18.5744 29.4256 21.0021 29.4256 23.9967V38.5777C29.4256 41.5724 26.9979 44 24.0033 44H9.4223C6.42765 44 4 41.5724 4 38.5777V23.9967ZM20.3763 29.4194H20.358C19.3766 29.4194 18.581 28.6237 18.581 27.6423C18.581 26.6609 19.3766 25.8652 20.358 25.8652H20.3763C21.3577 25.8652 22.1533 26.6609 22.1533 27.6423C22.1533 28.6237 21.3577 29.4194 20.3763 29.4194ZM11.2905 34.9328C11.2905 33.9514 12.0861 33.1557 13.0676 33.1557H13.0858C14.0672 33.1557 14.8628 33.9514 14.8628 34.9328C14.8628 35.9142 14.0672 36.7099 13.0858 36.7099H13.0676C12.0861 36.7099 11.2905 35.9142 11.2905 34.9328Z" fill="url(#paint0_linear_935_75739)"/>
    </g>
  </g>
  <defs>
    <filter id="filter0_ddddi_935_75739" x="1.12" y="1.12" width="57.28" height="57.28" filterUnits="userSpaceOnUse" color-interpolation-filters="sRGB">
      <feFlood flood-opacity="0" result="BackgroundImageFix"/>
      <feColorMatrix in="SourceAlpha" type="matrix" values="0 0 0 0 0 0 0 0 0 0 0 0 0 0 0 0 0 0 127 0" result="hardAlpha"/>
      <feOffset/>
      <feGaussianBlur stdDeviation="1.44"/>
      <feColorMatrix type="matrix" values="0 0 0 0 0 0 0 0 0 0 0 0 0 0 0 0 0 0 0.25 0"/>
      <feBlend mode="normal" in2="BackgroundImageFix" result="effect1_dropShadow_935_75739"/>
      <feColorMatrix in="SourceAlpha" type="matrix" values="0 0 0 0 0 0 0 0 0 0 0 0 0 0 0 0 0 0 127 0" result="hardAlpha"/>
      <feOffset dx="2.88" dy="2.88"/>
      <feGaussianBlur stdDeviation="1.44"/>
      <feColorMatrix type="matrix" values="0 0 0 0 0 0 0 0 0 0 0 0 0 0 0 0 0 0 0.22 0"/>
      <feBlend mode="normal" in2="effect1_dropShadow_935_75739" result="effect2_dropShadow_935_75739"/>
      <feColorMatrix in="SourceAlpha" type="matrix" values="0 0 0 0 0 0 0 0 0 0 0 0 0 0 0 0 0 0 127 0" result="hardAlpha"/>
      <feOffset dx="5.76" dy="5.76"/>
      <feGaussianBlur stdDeviation="1.44"/>
      <feColorMatrix type="matrix" values="0 0 0 0 0 0 0 0 0 0 0 0 0 0 0 0 0 0 0.13 0"/>
      <feBlend mode="normal" in2="effect2_dropShadow_935_75739" result="effect3_dropShadow_935_75739"/>
      <feColorMatrix in="SourceAlpha" type="matrix" values="0 0 0 0 0 0 0 0 0 0 0 0 0 0 0 0 0 0 127 0" result="hardAlpha"/>
      <feOffset dx="8.64" dy="8.64"/>
      <feGaussianBlur stdDeviation="2.88"/>
      <feColorMatrix type="matrix" values="0 0 0 0 0 0 0 0 0 0 0 0 0 0 0 0 0 0 0.04 0"/>
      <feBlend mode="normal" in2="effect3_dropShadow_935_75739" result="effect4_dropShadow_935_75739"/>
      <feBlend mode="normal" in="SourceGraphic" in2="effect4_dropShadow_935_75739" result="shape"/>
      <feColorMatrix in="SourceAlpha" type="matrix" values="0 0 0 0 0 0 0 0 0 0 0 0 0 0 0 0 0 0 127 0" result="hardAlpha"/>
      <feOffset/>
      <feGaussianBlur stdDeviation="1"/>
      <feComposite in2="hardAlpha" operator="arithmetic" k2="-1" k3="1"/>
      <feColorMatrix type="matrix" values="0 0 0 0 1 0 0 0 0 1 0 0 0 0 1 0 0 0 0.25 0"/>
      <feBlend mode="normal" in2="shape" result="effect5_innerShadow_935_75739"/>
    </filter>
    <linearGradient id="paint0_linear_935_75739" x1="25.3038" y1="4" x2="16.1013" y2="41.7641" gradientUnits="userSpaceOnUse">
      <stop stop-color="#C9AE8D"/>
      <stop offset="1" stop-color="#A57D4E"/>
    </linearGradient>
    <clipPath id="clip0_935_75739">
      <rect width="48" height="48" fill="white"/>
    </clipPath>
  </defs>
</svg>