<svg xmlns="http://www.w3.org/2000/svg" width="20" height="20" viewBox="0 0 20 20" fill="none">
  <path fill-rule="evenodd" clip-rule="evenodd" d="M1.2085 5.00016C1.2085 3.94162 2.06662 3.0835 3.12516 3.0835H16.8752C17.9337 3.0835 18.7918 3.94162 18.7918 5.00016V13.1241C18.7918 13.1248 18.7918 13.1255 18.7918 13.1262V15.0002C18.7918 16.0587 17.9337 16.9168 16.8752 16.9168H3.12516C2.06662 16.9168 1.2085 16.0587 1.2085 15.0002V5.00016ZM2.54183 13.4013V15.0002C2.54183 15.3223 2.803 15.5835 3.12516 15.5835H16.8752C17.1973 15.5835 17.4585 15.3223 17.4585 15.0002V13.4013L15.2296 11.1724C14.7577 10.7005 13.9926 10.7005 13.5207 11.1724L12.818 11.8752L13.5966 12.6538C13.8569 12.9141 13.8569 13.3362 13.5966 13.5966C13.3362 13.8569 12.9141 13.8569 12.6538 13.5966L8.35458 9.29739C7.8827 8.82551 7.11763 8.82551 6.64574 9.29739L2.54183 13.4013ZM11.8752 10.9324L9.29739 8.35458C8.30481 7.362 6.69552 7.362 5.70293 8.35458L2.54183 11.5157V5.00016C2.54183 4.678 2.803 4.41683 3.12516 4.41683H16.8752C17.1973 4.41683 17.4585 4.678 17.4585 5.00016V11.5157L16.1724 10.2296C15.1798 9.237 13.5705 9.237 12.5779 10.2296L11.8752 10.9324ZM10.896 6.87516C10.896 6.33438 11.3344 5.896 11.8752 5.896C12.4159 5.896 12.8543 6.33438 12.8543 6.87516C12.8543 7.41594 12.4159 7.85433 11.8752 7.85433C11.3344 7.85433 10.896 7.41594 10.896 6.87516Z" fill="url(#paint0_linear_1923_21377)"/>
  <defs>
    <linearGradient id="paint0_linear_1923_21377" x1="10.0002" y1="3.0835" x2="10.0002" y2="16.9168" gradientUnits="userSpaceOnUse">
      <stop stop-color="#BFA582"/>
      <stop offset="1" stop-color="#8E6C43"/>
    </linearGradient>
  </defs>
</svg>