<svg width="32" height="32" viewBox="0 0 32 32" fill="none" xmlns="http://www.w3.org/2000/svg">
<path d="M0 16C0 7.16344 7.16344 0 16 0C24.8366 0 32 7.16344 32 16C32 24.8366 24.8366 32 16 32C7.16344 32 0 24.8366 0 16Z" fill="url(#paint0_linear_1908_11746)"/>
<path fill-rule="evenodd" clip-rule="evenodd" d="M16 10.5999C15.3767 10.5999 14.7595 10.7239 14.1837 10.9649C13.6078 11.2059 13.0846 11.5592 12.6439 12.0045C12.2031 12.4499 11.8535 12.9786 11.615 13.5605C11.4569 13.9462 11.3496 14.3503 11.2953 14.7623H12.4179C12.9008 14.7623 13.364 14.9562 13.7055 15.3013C14.047 15.6463 14.2388 16.1143 14.2388 16.6023V18.4121C14.2388 18.9001 14.047 19.3681 13.7055 19.7131C13.364 20.0582 12.9008 20.252 12.4179 20.252H11.8209C11.338 20.252 10.8748 20.0582 10.5333 19.7131C10.1918 19.3681 10 18.9001 10 18.4121V15.3958C10 14.5996 10.1552 13.8112 10.4567 13.0757C10.7583 12.3401 11.2002 11.6717 11.7574 11.1088C12.3145 10.5458 12.9759 10.0992 13.7039 9.79451C14.4319 9.48983 15.2121 9.33301 16 9.33301C16.7879 9.33301 17.5681 9.48983 18.2961 9.79451C19.0241 10.0992 19.6855 10.5458 20.2426 11.1088C20.7998 11.6717 21.2418 12.3401 21.5433 13.0757C21.8448 13.8112 22 14.5996 22 15.3958V19.6186C22 20.4266 21.6824 21.2014 21.1169 21.7728C20.5515 22.3441 19.7847 22.6651 18.9851 22.6651H16C15.6538 22.6651 15.3731 22.3815 15.3731 22.0316C15.3731 21.6818 15.6538 21.3982 16 21.3982H18.9851C19.4522 21.3982 19.9001 21.2107 20.2304 20.877C20.4238 20.6816 20.5676 20.4454 20.6535 20.1885C20.5001 20.2303 20.3407 20.252 20.1791 20.252H19.5821C19.0992 20.252 18.636 20.0582 18.2945 19.7131C17.953 19.3681 17.7612 18.9001 17.7612 18.4121V16.6023C17.7612 16.1143 17.953 15.6463 18.2945 15.3013C18.636 14.9562 19.0992 14.7623 19.5821 14.7623H20.7047C20.6504 14.3503 20.5431 13.9462 20.385 13.5605C20.1465 12.9786 19.7969 12.4499 19.3561 12.0045C18.9154 11.5592 18.3922 11.2059 17.8163 10.9649C17.2405 10.7239 16.6233 10.5999 16 10.5999ZM20.7463 16.0292H19.5821C19.4317 16.0292 19.2874 16.0896 19.181 16.1971C19.0747 16.3045 19.0149 16.4503 19.0149 16.6023V18.4121C19.0149 18.5641 19.0747 18.7098 19.181 18.8173C19.2874 18.9248 19.4317 18.9852 19.5821 18.9852H20.1791C20.3295 18.9852 20.4738 18.9248 20.5802 18.8173C20.6865 18.7098 20.7463 18.5641 20.7463 18.4121V16.0292ZM11.2537 16.0292V18.4121C11.2537 18.5641 11.3135 18.7098 11.4198 18.8173C11.5262 18.9248 11.6705 18.9852 11.8209 18.9852H12.4179C12.5683 18.9852 12.7126 18.9248 12.819 18.8173C12.9253 18.7098 12.9851 18.5641 12.9851 18.4121V16.6023C12.9851 16.4503 12.9253 16.3045 12.819 16.1971C12.7126 16.0896 12.5683 16.0292 12.4179 16.0292H11.2537Z" fill="url(#paint1_linear_1908_11746)"/>
<defs>
<linearGradient id="paint0_linear_1908_11746" x1="16" y1="0" x2="16" y2="32" gradientUnits="userSpaceOnUse">
<stop stop-color="#0C0C0C" stop-opacity="0.05"/>
<stop offset="1" stop-color="#0C0C0C" stop-opacity="0.5"/>
</linearGradient>
<linearGradient id="paint1_linear_1908_11746" x1="16" y1="13.9159" x2="16" y2="20.1653" gradientUnits="userSpaceOnUse">
<stop stop-color="#C9AE8D"/>
<stop offset="1" stop-color="#795C39"/>
</linearGradient>
</defs>
</svg>
